<?xml version="1.0" standalone="no"?>
<!DOCTYPE svg PUBLIC "-//W3C//DTD SVG 20010904//EN"
 "http://www.w3.org/TR/2001/REC-SVG-20010904/DTD/svg10.dtd">
<svg version="1.0" xmlns="http://www.w3.org/2000/svg"
 width="1336.000000pt" height="1336.000000pt" viewBox="0 0 1336.000000 1336.000000"
 preserveAspectRatio="xMidYMid meet">
<metadata>
Created by potrace 1.14, written by Peter Selinger 2001-2017
</metadata>
<g transform="translate(0.000000,1336.000000) scale(0.100000,-0.100000)"
fill="#000000" stroke="none">
<path d="M1282 8279 c-13 -5 -28 -7 -33 -3 -5 3 -9 0 -9 -6 0 -6 -5 -8 -12 -3
-22 13 -37 12 -31 -2 3 -10 -2 -13 -22 -9 -18 3 -32 -1 -42 -13 -8 -10 -12
-12 -8 -5 3 6 2 12 -4 12 -5 0 -11 -4 -13 -9 -1 -6 -19 -13 -38 -16 -19 -3
-37 -10 -38 -16 -2 -5 -8 -7 -13 -3 -5 3 -9 0 -9 -6 0 -6 -4 -8 -10 -5 -5 3
-10 2 -10 -3 0 -6 -9 -8 -20 -5 -12 3 -22 -1 -26 -10 -3 -8 -20 -21 -37 -28
-18 -7 -38 -21 -46 -32 -7 -10 -19 -16 -27 -13 -9 3 -11 0 -7 -11 4 -11 2 -14
-5 -9 -7 4 -12 2 -12 -4 0 -7 -6 -10 -14 -7 -10 4 -14 0 -11 -13 3 -14 -1 -17
-12 -13 -11 4 -14 2 -9 -5 4 -8 1 -12 -10 -12 -10 0 -15 -3 -11 -6 3 -3 -8
-19 -24 -35 -16 -15 -29 -33 -29 -39 0 -6 -4 -9 -8 -6 -4 2 -14 -5 -22 -17
-11 -19 -11 -21 1 -12 8 6 7 3 -3 -6 -9 -9 -14 -19 -11 -23 3 -3 -1 -8 -10
-12 -9 -3 -13 -12 -10 -21 4 -11 2 -14 -5 -9 -8 5 -12 -1 -12 -18 0 -14 -5
-28 -10 -31 -6 -4 -7 -11 -4 -17 5 -8 1 -9 -11 -4 -14 5 -16 4 -7 -7 9 -10 8
-17 -1 -27 -9 -10 -9 -11 0 -6 9 5 11 2 7 -8 -3 -9 -11 -13 -18 -9 -6 4 -5 -1
3 -10 10 -13 10 -17 1 -17 -7 0 -10 -7 -6 -16 4 -9 2 -22 -4 -29 -7 -9 -8 -15
-1 -19 6 -4 7 -16 3 -29 -9 -27 -9 -48 1 -64 5 -8 3 -13 -3 -13 -6 0 -8 -5 -3
-12 4 -7 9 -26 10 -43 4 -44 12 -74 35 -122 6 -11 8 -26 4 -31 -3 -6 -1 -14 5
-18 8 -5 9 -3 4 6 -5 9 -4 11 3 6 7 -4 12 -14 12 -23 0 -9 8 -22 18 -30 9 -8
11 -12 5 -8 -9 4 -11 1 -7 -9 3 -9 9 -14 14 -11 4 2 15 -14 25 -36 10 -22 23
-43 28 -46 6 -4 7 -1 2 8 -4 8 1 5 12 -6 11 -11 19 -23 16 -27 -2 -5 3 -8 11
-8 9 0 16 -5 16 -11 0 -5 5 -7 10 -4 6 4 10 3 9 -2 -3 -20 2 -34 11 -28 6 3
10 1 10 -4 0 -6 7 -11 16 -11 8 0 12 -4 9 -10 -3 -6 1 -7 9 -4 9 4 18 -1 22
-10 3 -9 12 -16 20 -16 8 0 14 -4 14 -10 0 -5 9 -10 21 -10 13 0 18 -4 13 -12
-5 -7 0 -9 14 -6 15 4 19 2 15 -9 -3 -7 -2 -13 3 -12 24 4 46 -3 64 -21 12
-12 20 -15 20 -7 0 9 2 9 8 0 4 -6 14 -13 22 -15 8 -2 21 -10 28 -18 12 -13
13 -13 6 0 -7 12 -5 13 8 3 8 -7 18 -10 21 -6 4 3 7 1 7 -5 0 -7 5 -11 12 -9
7 1 12 -3 13 -10 0 -6 4 -15 9 -20 5 -5 6 -3 2 5 -5 8 0 12 14 12 12 0 19 -4
16 -9 -3 -5 1 -12 10 -15 10 -4 13 -2 8 7 -6 9 -5 9 8 0 8 -7 18 -10 21 -6 4
3 7 1 7 -6 0 -7 5 -9 12 -5 8 5 9 2 4 -11 -5 -15 -4 -16 8 -6 11 10 17 8 25
-6 7 -13 10 -14 11 -4 0 11 4 10 16 -5 8 -10 13 -13 9 -7 -4 8 6 6 24 -4 16
-10 27 -22 23 -28 -3 -5 3 -3 13 5 17 13 18 13 13 -1 -5 -13 -2 -16 14 -11 14
3 19 1 14 -6 -4 -7 -2 -10 7 -6 8 3 20 -2 27 -11 7 -8 19 -15 27 -15 8 0 11
-4 8 -10 -3 -5 0 -7 8 -4 8 3 22 -2 31 -11 9 -9 16 -13 16 -8 1 4 8 -5 16 -22
8 -16 12 -21 9 -11 -4 15 -3 17 9 7 8 -6 17 -23 20 -36 4 -14 13 -25 21 -25 8
0 15 -5 15 -11 0 -5 -4 -7 -10 -4 -18 11 -11 -4 13 -26 12 -12 16 -19 10 -15
-16 9 -18 -20 -3 -29 6 -4 8 -11 5 -16 -11 -16 -14 -50 -5 -44 9 5 8 -14 -1
-30 -4 -5 -5 -20 -4 -32 1 -12 -3 -19 -10 -17 -6 3 -12 -8 -13 -23 -1 -16 -9
-33 -17 -39 -8 -6 -11 -15 -7 -19 4 -5 -1 -5 -11 -2 -11 4 -16 3 -12 -3 13
-21 -94 -98 -116 -84 -5 3 -9 0 -9 -6 0 -8 -6 -8 -20 0 -16 8 -22 8 -26 -4 -6
-15 -20 -16 -43 -2 -10 6 -12 5 -7 -2 10 -16 -16 -15 -49 2 -15 8 -33 12 -40
10 -7 -3 -15 2 -18 10 -4 9 -11 16 -17 16 -6 0 -8 -6 -4 -12 5 -9 3 -9 -9 1
-9 7 -14 17 -11 22 3 5 -3 6 -12 2 -12 -4 -15 -3 -10 5 4 7 2 12 -4 12 -6 0
-8 5 -4 13 5 7 2 7 -10 -2 -9 -8 -16 -10 -15 -5 4 22 -2 34 -18 35 -10 0 -13
3 -6 5 8 4 5 12 -8 25 -11 11 -18 27 -15 35 3 9 1 12 -4 9 -10 -6 -11 -5 -15
30 -1 12 -8 31 -15 44 -9 18 -9 22 0 16 9 -5 9 -1 -1 16 -7 13 -11 24 -10 24
1 0 0 7 -4 16 -5 13 -41 15 -280 15 -152 0 -275 -3 -275 -8 0 -5 -6 -6 -13 -2
-9 6 -9 5 0 -7 7 -9 8 -20 3 -29 -5 -8 -5 -21 1 -32 7 -13 6 -18 -3 -18 -8 -1
-5 -7 6 -15 11 -8 14 -15 8 -15 -9 0 -10 -5 -2 -19 15 -29 12 -35 -7 -20 -17
13 -17 13 0 -7 9 -11 14 -24 10 -27 -3 -4 -1 -7 6 -7 8 0 9 -5 1 -19 -7 -14
-7 -22 0 -26 6 -4 7 -11 4 -17 -5 -7 -2 -8 6 -3 10 6 12 3 8 -13 -4 -12 -2
-25 3 -28 5 -3 9 -14 9 -25 0 -10 5 -19 10 -19 6 0 10 -9 10 -20 0 -11 5 -20
11 -20 8 0 7 -5 -1 -16 -11 -12 -11 -15 1 -12 8 2 13 -3 11 -9 -1 -7 3 -13 9
-13 6 0 9 -7 6 -14 -4 -11 -1 -13 10 -9 10 4 14 2 9 -5 -3 -6 0 -14 8 -19 14
-8 16 -12 16 -33 0 -6 6 -9 13 -8 6 2 11 -3 9 -9 -1 -7 3 -13 9 -13 5 0 7 -4
4 -10 -3 -5 1 -10 9 -10 9 0 16 -5 16 -11 0 -5 5 -7 10 -4 9 6 14 -8 11 -28
-1 -5 8 -6 19 -2 11 4 20 3 19 -2 -3 -19 2 -34 10 -28 5 3 16 -2 24 -10 9 -8
20 -15 25 -15 6 0 13 -6 15 -12 4 -10 6 -10 6 0 1 7 9 4 21 -8 11 -11 27 -20
36 -20 8 0 12 -4 9 -10 -3 -5 3 -10 15 -10 13 0 19 -4 14 -11 -4 -7 1 -7 16 1
13 7 20 8 16 2 -3 -6 -2 -13 4 -17 5 -3 10 -2 10 4 0 6 7 8 15 5 8 -4 12 -10
9 -15 -6 -10 5 -12 49 -11 17 0 25 -3 21 -10 -5 -7 -1 -9 9 -5 9 3 18 3 21 -1
2 -4 20 -7 40 -6 20 1 36 -3 36 -8 0 -7 5 -7 13 -1 13 10 23 10 51 -2 12 -5
21 -3 27 6 7 11 9 9 9 -6 0 -17 2 -17 10 -5 9 13 10 13 10 0 0 -13 1 -13 10 0
9 13 10 13 10 0 0 -13 1 -13 10 0 6 10 10 11 10 3 0 -7 5 -13 11 -13 5 0 7 5
3 12 -4 7 -3 8 5 4 22 -14 103 -13 108 1 4 11 8 10 18 -4 13 -17 14 -17 21 0
5 15 9 16 15 5 7 -11 11 -10 19 2 9 13 10 13 10 0 0 -10 3 -11 8 -4 4 6 17 10
30 9 12 -1 22 2 22 7 0 5 10 4 21 -3 12 -6 19 -7 15 -1 -3 5 1 13 10 16 23 9
26 8 18 -6 -5 -9 -2 -8 9 1 10 8 27 14 40 15 12 1 21 7 19 14 -1 7 2 12 8 12
5 0 10 -6 10 -12 0 -10 3 -9 9 1 5 8 14 10 21 6 9 -5 11 -4 6 3 -7 12 5 16 33
13 8 -2 10 2 6 10 -5 7 -3 10 5 7 8 -2 22 4 32 14 10 10 23 16 28 13 6 -4 10
0 10 8 0 8 12 18 27 22 14 3 44 24 64 46 21 23 43 38 49 34 6 -4 7 1 3 11 -4
12 -3 15 5 10 8 -5 10 -2 6 8 -4 11 2 19 17 25 13 5 18 10 11 10 -7 1 -10 6
-7 11 4 6 11 8 16 5 5 -4 9 3 9 14 0 15 5 19 18 14 14 -5 15 -4 4 8 -10 11 -8
17 10 32 13 10 16 15 8 11 -12 -6 -13 -5 -3 8 7 8 10 18 6 21 -3 4 2 7 13 7
16 0 17 2 4 10 -11 7 -11 10 -2 10 7 0 10 5 7 10 -3 6 -1 10 5 10 6 0 8 5 5
10 -4 6 -1 18 7 27 9 12 9 15 1 9 -9 -5 -11 -2 -7 8 3 9 11 16 18 16 6 0 4 5
-4 10 -13 8 -12 10 3 10 17 0 17 1 3 16 -17 17 -20 25 -8 23 19 -3 22 3 11 24
-10 19 -10 20 2 10 12 -9 14 -4 13 37 -1 26 -4 53 -8 58 -3 6 0 13 6 15 10 4
10 8 -1 15 -10 7 -10 11 -1 17 9 6 9 10 -1 16 -8 5 -9 9 -3 9 12 0 6 57 -7 66
-5 3 -9 11 -9 17 0 7 4 6 10 -3 7 -12 9 -10 7 7 0 12 -5 19 -9 17 -4 -3 -8 8
-8 25 0 16 -6 32 -12 34 -10 4 -10 6 0 6 10 1 10 5 -2 17 -9 8 -14 20 -11 25
4 5 1 9 -4 9 -6 0 -11 9 -11 19 0 11 -4 21 -9 23 -5 2 -11 10 -13 18 -4 19
-21 39 -29 34 -9 -5 -20 26 -14 37 4 5 -2 6 -11 2 -10 -4 -15 -2 -11 3 3 6 -5
18 -18 28 -14 10 -22 23 -18 29 3 6 1 7 -5 3 -7 -4 -12 -2 -12 5 0 7 -3 10 -6
6 -9 -9 -44 25 -37 36 3 6 1 7 -5 3 -7 -4 -12 -2 -12 4 0 6 -4 8 -10 5 -5 -3
-10 -1 -10 5 0 6 -4 9 -9 6 -5 -3 -20 9 -35 26 -14 18 -26 26 -26 19 0 -7 -5
-9 -10 -6 -6 4 -7 11 -4 17 4 6 2 8 -4 4 -6 -3 -14 -1 -17 5 -4 5 -13 8 -21 5
-8 -3 -14 1 -14 8 0 8 -7 17 -16 20 -10 4 -13 2 -9 -7 4 -6 0 -4 -8 6 -8 9
-22 17 -31 17 -9 0 -16 5 -16 11 0 5 -4 8 -9 5 -5 -3 -12 1 -15 10 -4 9 -9 14
-13 11 -3 -4 -13 -1 -21 6 -13 9 -14 9 -8 0 4 -7 2 -13 -3 -13 -6 0 -11 7 -11
15 0 8 -3 14 -7 14 -26 -4 -43 2 -37 14 6 9 5 9 -8 -1 -12 -10 -17 -10 -27 1
-6 8 -7 18 -3 23 4 4 -2 2 -12 -6 -11 -8 -17 -10 -13 -3 4 6 3 14 -3 18 -5 3
-10 0 -11 -7 0 -7 -4 -4 -9 7 -6 14 -9 15 -10 5 0 -11 -7 -8 -21 10 -11 14
-18 19 -14 13 3 -7 2 -13 -3 -13 -13 0 -33 26 -26 33 3 3 -3 3 -14 1 -10 -3
-26 2 -36 11 -9 9 -16 12 -16 5 0 -7 -7 -5 -16 5 -9 9 -24 13 -32 10 -9 -3
-13 -3 -10 1 11 10 -21 37 -37 30 -9 -3 -12 0 -8 10 3 8 2 14 -3 13 -20 -3
-47 1 -41 8 11 10 -31 35 -46 27 -6 -4 -9 -4 -5 1 11 11 -12 36 -25 28 -6 -3
-7 -1 -3 5 4 7 2 12 -4 12 -7 0 -10 6 -7 14 3 8 -2 16 -11 18 -14 4 -17 16
-16 61 0 31 -2 54 -6 52 -4 -2 -7 2 -7 10 0 8 4 12 8 9 11 -7 17 19 8 37 -5
11 -2 23 12 38 11 11 15 21 9 21 -7 0 -5 7 4 16 9 8 20 12 26 9 6 -4 10 -3 9
2 -3 20 2 34 11 28 6 -3 10 1 10 9 0 9 7 16 15 16 8 0 15 5 15 11 0 6 6 9 14
6 8 -3 17 1 20 10 5 13 9 13 23 2 14 -12 16 -12 9 0 -7 11 -1 13 26 9 28 -3
35 -1 30 10 -4 12 -1 12 18 2 18 -10 24 -9 31 1 7 11 9 11 9 1 0 -7 4 -11 8
-8 4 2 14 1 22 -4 9 -5 19 -5 27 1 9 8 11 6 9 -8 -3 -14 2 -19 22 -18 16 0 26
-5 25 -12 -2 -8 4 -10 15 -6 9 3 14 3 10 -2 -4 -4 3 -16 15 -26 12 -10 18 -18
13 -19 -5 0 1 -9 13 -19 12 -11 22 -22 22 -25 -3 -21 1 -26 12 -20 7 5 6 0 -3
-11 -10 -13 -11 -16 -2 -11 9 5 13 3 11 -5 -3 -27 1 -59 9 -58 21 4 32 -2 27
-13 -4 -7 1 -4 9 6 9 11 16 15 16 9 0 -7 10 -9 28 -4 19 5 31 3 40 -8 9 -10
11 -11 6 -2 -5 11 -3 13 9 8 10 -3 17 -2 17 4 0 6 6 7 12 2 16 -9 48 -10 69
-1 9 4 26 0 39 -9 13 -9 20 -11 16 -5 -11 17 57 20 72 2 10 -11 12 -12 6 -1
-5 11 -3 13 9 8 10 -3 17 -2 17 4 0 6 6 7 12 2 17 -9 49 -10 69 -1 9 4 19 5
23 1 11 -12 73 -8 73 4 0 7 -5 9 -11 6 -6 -3 -5 0 2 8 6 7 12 19 12 27 0 8 -5
10 -12 6 -10 -6 -10 -5 -1 7 15 19 13 31 -6 47 -9 8 -11 11 -4 8 6 -4 14 -2
18 4 3 5 2 10 -3 10 -6 0 -13 7 -16 16 -4 10 -2 13 7 8 8 -5 8 -2 -2 9 -7 9
-11 23 -8 32 4 8 1 17 -5 21 -7 5 -8 2 -3 -6 5 -8 4 -11 -2 -7 -6 4 -10 17 -9
29 1 13 -2 26 -7 29 -4 3 -9 16 -10 28 -1 12 -6 19 -13 17 -8 -3 -10 3 -6 16
4 16 2 19 -8 13 -10 -6 -12 -4 -7 8 4 10 1 17 -6 17 -7 0 -17 11 -24 25 -8 19
-8 24 0 19 7 -4 -3 7 -20 23 -18 16 -33 34 -33 41 0 7 -6 12 -14 12 -7 0 -20
8 -27 18 -12 15 -12 16 1 7 9 -5 4 0 -10 12 -14 13 -31 23 -37 23 -7 0 -13 5
-13 11 0 5 -4 7 -10 4 -5 -3 -10 1 -10 10 0 9 -4 14 -9 11 -12 -8 -52 29 -43
40 4 4 -1 2 -10 -5 -12 -9 -18 -10 -18 -2 0 6 -9 11 -20 11 -11 0 -20 7 -20
15 0 8 -6 12 -14 9 -8 -3 -27 1 -43 9 -15 8 -36 13 -46 12 -9 -2 -15 1 -11 6
3 5 -7 9 -21 9 -18 0 -24 4 -19 13 6 9 4 9 -8 -1 -11 -9 -18 -10 -23 -2 -4 7
-13 7 -28 -1 -12 -7 -19 -8 -15 -4 14 15 -25 33 -54 24 -16 -4 -28 -4 -28 2 0
11 -23 7 -32 -6 -5 -6 -8 -6 -8 2 0 14 -40 13 -40 -2 0 -7 -3 -6 -8 1 -8 12
-82 13 -82 0 0 -5 -6 -4 -12 2 -8 6 -22 6 -36 1z m-312 -103 c0 -3 -4 -8 -10
-11 -5 -3 -10 -1 -10 4 0 6 5 11 10 11 6 0 10 -2 10 -4z m164 -554 c3 -5 -1
-9 -9 -9 -8 0 -12 4 -9 9 3 4 7 8 9 8 2 0 6 -4 9 -8z"/>
<path d="M12262 8234 c-7 -8 -10 -19 -6 -26 5 -8 2 -9 -11 -4 -15 5 -16 4 -5
-9 9 -11 9 -15 1 -15 -7 0 -10 -4 -7 -9 3 -5 0 -11 -8 -14 -9 -3 -13 -16 -12
-31 2 -14 -1 -26 -5 -26 -5 0 -9 -7 -9 -16 0 -8 -5 -12 -11 -8 -8 5 -8 1 0
-14 7 -13 7 -22 1 -24 -6 -2 -12 -13 -15 -26 -2 -12 -7 -28 -12 -35 -14 -22
-32 -81 -27 -89 3 -4 0 -8 -6 -8 -6 0 -8 -4 -5 -10 3 -5 1 -10 -4 -10 -6 0
-10 -3 -10 -7 4 -19 -14 -72 -22 -67 -5 3 -6 -2 -3 -10 4 -11 0 -16 -12 -17
-18 0 -17 -1 1 -9 11 -5 14 -9 7 -9 -6 -1 -11 -7 -10 -13 2 -7 -2 -12 -8 -11
-6 1 -11 -10 -10 -25 1 -15 -7 -33 -16 -40 -10 -7 -15 -19 -11 -28 3 -9 0 -20
-8 -25 -12 -7 -12 -9 0 -9 11 0 10 -4 -5 -16 -10 -8 -13 -13 -7 -9 9 4 11 1 7
-9 -3 -9 -10 -13 -15 -10 -5 3 -9 2 -8 -3 5 -27 -2 -63 -11 -58 -7 4 -9 -3 -6
-19 3 -15 1 -24 -4 -21 -5 3 -12 -7 -15 -22 -4 -15 -11 -36 -16 -46 -5 -10 -7
-22 -4 -26 3 -5 -2 -12 -11 -15 -9 -3 -14 -12 -11 -19 3 -7 -1 -24 -8 -37 -10
-18 -10 -29 -3 -38 8 -10 7 -11 -7 -6 -12 5 -16 4 -11 -4 3 -6 2 -13 -4 -17
-6 -4 -8 -11 -5 -16 4 -5 2 -9 -3 -9 -6 0 -13 -7 -16 -16 -6 -15 -4 -15 11 -3
16 12 16 11 0 -8 -11 -12 -16 -27 -12 -32 3 -6 -2 -11 -12 -11 -14 0 -15 -2
-4 -9 11 -7 10 -11 -5 -20 -13 -7 -15 -10 -5 -11 11 0 10 -4 -5 -16 -10 -8
-12 -12 -4 -8 12 7 13 5 3 -8 -7 -8 -10 -18 -6 -21 3 -4 1 -7 -6 -7 -7 0 -9
-4 -6 -10 3 -5 1 -10 -6 -10 -8 0 -7 -5 2 -17 12 -14 12 -16 0 -8 -11 6 -13 4
-8 -8 6 -16 -4 -22 -27 -18 -5 1 -4 -5 4 -13 10 -13 10 -16 0 -16 -10 0 -10
-3 -1 -14 9 -11 9 -16 0 -22 -8 -5 -9 -3 -4 7 8 12 6 12 -9 0 -13 -11 -14 -16
-4 -22 9 -6 9 -9 1 -9 -6 0 -10 -13 -9 -31 2 -28 1 -29 -11 -14 -11 16 -12 16
-11 -6 2 -40 -1 -50 -13 -43 -7 4 -9 0 -5 -14 4 -11 2 -23 -4 -27 -6 -3 -8
-11 -5 -16 4 -5 1 -9 -5 -9 -6 0 -8 -5 -5 -10 4 -6 2 -16 -3 -23 -5 -7 -12
-21 -16 -32 -6 -19 -1 -20 162 -20 92 0 173 4 181 9 9 6 12 5 8 0 -3 -6 24
-10 71 -9 67 1 77 3 76 18 -2 14 1 15 13 6 11 -10 14 -10 11 2 -2 8 -7 17 -13
21 -6 5 -6 8 1 8 7 0 15 11 18 25 4 14 10 24 14 21 4 -2 7 11 6 30 -2 25 1 32
10 25 8 -7 11 -1 11 22 0 19 5 31 12 30 7 -2 10 6 8 17 -2 11 2 20 8 20 7 0 6
4 -3 10 -12 8 -12 10 -1 10 8 0 11 7 8 20 -3 11 0 18 7 17 6 -1 10 6 8 16 -2
11 4 17 15 17 14 0 15 2 4 9 -9 6 -10 11 -2 15 6 4 9 12 6 17 -4 5 2 9 11 9
16 0 16 1 -2 16 -10 8 -14 13 -8 10 17 -8 27 26 12 37 -9 6 -7 7 8 4 13 -3 21
1 21 9 0 7 -5 10 -11 7 -5 -4 0 7 12 24 16 22 18 33 10 41 -8 8 -7 13 5 18 9
3 14 10 11 15 -3 5 0 9 7 9 6 0 9 8 6 20 -4 14 0 20 11 20 15 0 15 2 2 10 -14
9 -7 15 15 10 6 -1 5 4 -2 11 -12 12 -6 42 7 34 4 -2 7 6 7 18 0 30 25 87 38
87 5 0 4 4 -3 8 -10 7 -7 15 10 37 13 17 16 26 8 21 -8 -4 -7 -1 3 7 18 15 24
32 6 22 -6 -4 -5 2 2 13 7 12 17 18 22 15 5 -3 5 3 -1 13 -8 14 -6 21 6 31 11
8 12 12 5 13 -9 0 -7 6 5 18 9 11 22 17 27 15 6 -3 1 3 -9 11 -12 10 -15 16
-7 16 7 0 11 6 8 14 -3 8 1 17 9 20 9 3 12 10 9 16 -3 5 -1 10 5 10 8 0 8 6 0
20 -6 11 -7 20 -3 19 4 -1 15 -1 23 0 13 1 13 2 0 11 -13 8 -12 11 5 24 15 10
20 24 19 51 -1 23 3 38 12 42 8 3 12 9 9 13 -3 4 1 13 9 19 8 7 12 21 8 33 -3
12 -1 19 4 15 6 -3 9 7 8 24 -1 16 2 26 7 23 5 -3 6 -10 3 -16 -4 -6 -3 -8 3
-5 5 3 9 16 8 29 -1 13 4 29 11 36 7 7 11 19 8 27 -4 8 -1 15 5 15 6 0 11 5
11 11 0 5 -6 7 -12 4 -7 -4 -4 1 6 9 11 9 16 16 12 16 -5 0 -3 7 4 15 6 8 9
19 6 24 -4 5 2 14 11 20 10 6 13 11 7 11 -6 0 -11 7 -11 15 0 11 3 12 14 3 11
-9 13 -8 11 3 -4 21 -18 28 -45 23 -14 -3 -23 0 -23 8 0 8 -3 9 -8 3 -10 -14
-105 -15 -114 -1 -5 7 -8 7 -8 1 0 -14 -60 -15 -60 -1 0 7 -3 8 -8 0 -4 -5
-18 -10 -32 -10 -14 0 -28 5 -32 10 -5 8 -8 8 -8 1 0 -6 -20 -11 -45 -11 -27
-1 -42 3 -38 9 4 6 1 7 -8 1 -17 -10 -52 -12 -59 -3 -3 4 -11 0 -18 -7z"/>
<path d="M3433 7676 c4 -10 3 -15 -3 -11 -6 3 -10 0 -11 -7 0 -7 -4 -4 -9 7
-5 11 -9 15 -9 9 -1 -6 -16 -11 -33 -11 -18 0 -41 -4 -51 -8 -9 -4 -26 -5 -37
-2 -11 3 -18 1 -15 -3 3 -5 1 -11 -5 -15 -5 -3 -10 0 -10 7 0 9 -3 9 -10 -2
-5 -8 -10 -11 -10 -7 0 5 -7 2 -15 -6 -8 -9 -24 -13 -35 -10 -12 3 -20 0 -20
-6 0 -7 -4 -9 -10 -6 -5 3 -10 0 -10 -7 0 -9 -3 -9 -10 2 -5 8 -10 10 -10 5 0
-6 -9 -16 -21 -23 -12 -8 -18 -9 -14 -3 10 16 2 13 -35 -14 -18 -13 -38 -21
-43 -18 -6 4 -8 0 -4 -10 4 -11 2 -14 -9 -10 -7 3 -14 0 -14 -7 0 -6 -5 -8
-10 -5 -6 3 -13 -1 -16 -9 -3 -9 -10 -13 -15 -10 -5 3 -9 0 -9 -6 0 -7 -7 -10
-14 -7 -11 4 -13 1 -9 -10 4 -10 2 -14 -4 -10 -6 4 -14 0 -17 -9 -3 -9 -11
-12 -18 -8 -8 5 -9 2 -4 -11 5 -15 4 -16 -9 -5 -9 7 -15 9 -14 4 4 -21 -2 -34
-13 -32 -7 2 -12 -3 -10 -9 1 -7 -3 -13 -9 -13 -15 0 -39 -26 -32 -34 6 -6
-12 -10 -30 -7 -5 1 -6 -3 -2 -9 7 -11 -7 -42 -18 -41 -4 1 -7 -1 -7 -4 0 -3
-11 -16 -25 -29 -18 -17 -22 -26 -13 -29 8 -3 6 -6 -5 -6 -11 -1 -20 -12 -24
-31 -3 -17 -10 -33 -16 -37 -6 -4 -7 -1 -2 7 5 8 4 11 -3 6 -6 -3 -9 -15 -7
-26 2 -12 -5 -29 -17 -40 -12 -11 -18 -25 -14 -35 3 -9 2 -14 -3 -11 -5 3 -12
-1 -15 -10 -4 -10 -2 -13 7 -8 8 6 8 3 -1 -9 -8 -9 -10 -22 -6 -28 4 -7 3 -9
-3 -6 -6 4 -13 -6 -17 -24 -3 -17 -9 -28 -13 -26 -5 3 -7 -9 -7 -26 1 -18 -3
-40 -8 -51 -7 -13 -7 -16 1 -12 18 11 13 -5 -6 -21 -17 -14 -17 -14 2 -9 17 5
18 4 5 -6 -18 -15 -23 -51 -6 -41 8 5 8 3 0 -8 -6 -8 -10 -27 -10 -44 1 -16
-3 -33 -9 -37 -6 -5 -6 -8 2 -8 6 0 10 -12 8 -27 -2 -16 2 -34 9 -42 8 -12 8
-13 -1 -7 -7 4 -13 2 -13 -3 0 -6 6 -11 13 -11 7 0 8 -3 2 -8 -17 -12 -16 -32
3 -32 11 0 13 -3 5 -8 -7 -4 -11 -17 -10 -29 0 -12 4 -20 8 -17 11 7 18 -22 8
-37 -12 -19 -11 -32 1 -24 6 3 10 -3 10 -14 0 -11 5 -23 10 -26 6 -3 10 -12
10 -18 0 -7 -4 -6 -10 3 -18 28 -10 1 11 -36 16 -30 18 -39 7 -45 -9 -6 -7 -9
9 -9 21 0 25 -13 10 -37 -6 -9 -3 -11 8 -7 10 4 15 2 13 -7 -2 -8 3 -13 10
-11 8 1 11 -2 7 -8 -3 -5 -2 -10 2 -10 5 0 10 -12 11 -26 1 -15 12 -36 24 -46
13 -11 22 -24 21 -29 -2 -5 2 -9 7 -9 6 0 10 -6 10 -13 0 -8 9 -22 20 -32 11
-10 20 -24 20 -32 0 -7 5 -13 11 -13 5 0 7 5 4 10 -3 6 -1 10 4 10 6 0 11 -9
11 -20 0 -10 9 -24 20 -30 11 -6 17 -16 14 -22 -4 -7 -3 -8 4 -4 11 7 82 -60
82 -77 0 -5 6 -4 14 2 11 10 16 8 21 -9 4 -12 9 -19 12 -16 7 7 63 -26 63 -37
0 -4 -5 -5 -12 -1 -7 4 -8 3 -4 -5 6 -9 11 -9 22 0 11 9 14 9 14 0 0 -7 5 -9
10 -6 6 3 10 1 10 -4 0 -6 10 -11 23 -11 18 0 19 -2 7 -11 -12 -8 -11 -9 5 -7
11 2 26 -3 33 -12 8 -8 11 -9 7 -2 -3 6 -1 12 4 12 6 0 11 -4 11 -10 0 -5 9
-10 21 -10 11 0 18 -4 15 -9 -3 -4 2 -8 12 -8 43 0 53 -3 46 -15 -6 -10 -4
-10 8 0 11 9 18 10 23 2 3 -6 11 -8 16 -5 5 4 9 2 9 -2 0 -5 14 -8 30 -7 17 1
30 -3 30 -8 0 -6 6 -8 14 -5 7 3 19 0 25 -6 9 -9 10 -8 5 7 -7 19 -6 19 16 3
16 -11 28 -13 40 -7 10 5 20 7 23 3 11 -10 87 -9 87 1 0 6 5 4 10 -4 7 -11 10
-11 10 -2 0 10 5 10 21 1 12 -6 19 -7 15 -1 -3 5 1 13 10 16 24 9 31 7 14 -4
-12 -8 -10 -9 7 -7 12 2 25 6 29 9 3 4 12 4 20 1 9 -3 14 2 14 13 1 18 1 18
11 1 10 -18 11 -18 31 0 11 10 22 17 24 16 11 -8 44 -2 39 6 -3 6 4 8 15 6 11
-2 20 0 20 5 0 5 9 7 20 5 11 -2 18 0 15 6 -5 8 23 14 47 10 4 0 5 5 2 13 -3
9 2 13 18 12 14 -1 22 4 20 12 -1 7 3 12 10 11 27 -3 39 1 32 13 -5 8 -2 9 9
5 10 -4 16 -2 14 5 -1 5 7 12 18 14 11 1 30 15 43 29 12 14 26 24 31 20 5 -3
12 4 16 15 4 11 11 17 17 14 8 -5 9 -1 5 10 -4 10 -3 15 3 11 6 -3 10 -1 10 5
0 6 3 9 8 7 4 -3 16 5 27 16 12 11 14 17 5 13 -8 -4 -6 0 5 9 11 9 19 21 17
26 -1 5 5 9 13 9 8 0 15 7 15 16 0 10 6 14 14 11 10 -4 12 0 9 14 -3 10 -1 19
5 19 6 0 17 3 25 6 12 4 14 0 10 -17 -5 -17 -3 -20 7 -14 10 6 12 4 7 -8 -3
-10 -2 -17 4 -17 6 0 7 -4 4 -10 -3 -5 -1 -10 6 -10 8 0 7 -5 -2 -17 -8 -9 -9
-14 -4 -11 6 3 15 0 22 -7 10 -11 10 -15 0 -18 -9 -4 -9 -6 1 -6 6 -1 12 -8
12 -16 0 -8 5 -15 11 -15 5 0 8 -4 5 -9 -8 -13 4 -42 15 -35 5 3 6 -2 3 -11
-4 -8 -1 -21 5 -29 6 -7 8 -16 4 -19 -3 -4 -1 -7 6 -7 7 0 11 -8 9 -17 -5 -34
52 -87 67 -63 3 6 15 6 30 0 17 -6 25 -6 25 1 0 6 5 7 10 4 14 -9 164 -10 177
-2 6 4 14 1 16 -5 4 -10 8 -9 16 2 8 12 11 12 11 1 0 -11 3 -11 15 -1 12 10
15 10 15 0 0 -10 3 -10 14 -1 8 7 17 8 20 3 7 -12 54 -3 63 11 4 6 1 7 -7 2
-10 -6 -12 -4 -7 8 4 12 1 17 -10 17 -13 0 -13 3 -3 15 10 12 10 15 0 15 -7 0
-10 7 -6 15 3 8 0 18 -7 22 -23 15 -37 49 -24 62 8 8 7 11 -6 11 -10 0 -14 5
-11 15 3 8 -1 21 -10 30 -8 9 -12 23 -9 32 4 11 3 14 -5 9 -8 -4 -12 0 -12 11
0 11 -6 25 -12 32 -11 11 -10 12 2 6 11 -6 10 -3 -3 12 -9 11 -14 23 -10 26 3
4 2 7 -4 7 -10 0 -12 8 -16 55 -1 15 -7 23 -14 21 -7 -3 -15 0 -19 6 -4 7 -3
8 4 4 7 -4 12 -2 12 3 0 6 -5 11 -11 11 -5 0 -7 4 -4 10 6 10 -22 80 -36 90
-4 3 -9 16 -10 30 -2 14 -8 28 -13 32 -5 3 -10 17 -11 30 -3 30 -27 88 -37 88
-4 0 -5 9 -3 20 2 12 -2 23 -10 27 -8 3 -15 9 -15 15 0 5 6 6 13 3 6 -4 4 0
-5 8 -10 8 -18 22 -18 31 0 9 -4 16 -10 16 -5 0 -9 3 -9 8 4 22 -2 42 -11 37
-13 -8 -8 18 5 27 6 4 2 8 -8 8 -10 0 -15 5 -12 10 4 6 1 17 -5 25 -7 8 -9 22
-6 31 5 14 4 15 -8 5 -12 -10 -14 -9 -11 6 1 10 -4 28 -11 41 -8 12 -11 22 -7
22 5 0 1 5 -7 10 -9 6 -11 10 -3 10 7 0 10 7 7 15 -4 8 -10 12 -15 9 -5 -3 -9
0 -9 5 0 6 6 11 13 11 6 0 4 5 -6 11 -15 9 -16 13 -5 27 8 10 9 13 1 9 -14 -9
-22 3 -25 37 -1 14 -6 26 -10 26 -4 0 -8 5 -8 11 0 5 6 7 13 4 6 -4 1 3 -13
15 -21 18 -22 21 -5 15 17 -5 17 -3 -4 19 -14 15 -21 26 -16 26 5 0 0 7 -11
16 -10 8 -13 13 -6 9 10 -5 10 -1 1 19 -7 14 -16 23 -20 20 -5 -3 -6 2 -3 10
3 9 1 16 -5 16 -6 0 -11 7 -11 15 0 8 -5 15 -11 15 -6 0 -9 9 -6 19 3 14 1 18
-9 14 -9 -3 -19 6 -27 26 -7 17 -16 29 -19 26 -3 -3 -11 2 -19 12 -8 9 -9 14
-2 10 6 -4 15 -2 19 4 4 7 3 9 -3 6 -12 -8 -53 25 -53 42 0 6 -3 10 -8 9 -4
-2 -20 7 -36 20 -16 12 -25 22 -21 22 5 0 18 -8 29 -17 21 -18 21 -18 2 5 -11
12 -25 22 -33 22 -7 0 -13 5 -13 10 0 6 -7 10 -16 10 -8 0 -13 4 -10 9 3 5 -4
11 -15 14 -12 3 -18 10 -14 16 3 6 0 9 -8 5 -8 -3 -18 0 -22 5 -3 6 -11 9 -16
6 -5 -3 -6 1 -3 10 4 9 3 15 -2 14 -5 -1 -18 -1 -29 0 -17 1 -18 3 -5 12 12 9
11 10 -7 6 -13 -3 -23 -2 -23 2 0 9 -49 35 -68 36 -7 0 -17 7 -22 15 -7 11
-10 11 -10 2 0 -10 -3 -10 -14 0 -8 7 -11 18 -8 23 2 6 -1 4 -9 -2 -17 -16
-33 -17 -23 -1 5 8 2 9 -9 5 -10 -3 -17 -2 -17 2 0 5 -9 7 -20 4 -15 -4 -20 0
-21 13 0 11 -3 14 -6 7 -5 -15 -33 -18 -33 -4 0 5 -8 8 -17 6 -10 -1 -23 2
-30 7 -7 5 -14 5 -18 -2 -3 -6 -11 -8 -16 -4 -5 3 -7 8 -5 12 2 4 -11 7 -30 7
-19 0 -34 -4 -34 -9 0 -6 -6 -2 -13 9 -11 14 -16 15 -22 5 -6 -9 -4 -11 5 -5
9 5 11 4 6 -4 -5 -8 -12 -9 -20 -2 -7 6 -17 6 -26 1 -10 -6 -23 -4 -39 7 -22
14 -24 14 -18 -1z m51 -487 c-3 -6 3 -5 14 2 11 7 27 9 38 4 11 -4 32 -7 48
-6 21 2 26 -1 20 -11 -6 -10 -4 -10 9 1 14 11 17 11 17 0 0 -11 2 -11 10 1 8
12 10 12 10 -5 0 -17 2 -17 10 -5 7 11 10 11 10 2 0 -7 5 -10 10 -7 6 3 10 1
10 -5 0 -6 5 -8 10 -5 6 3 10 1 10 -5 0 -6 5 -8 10 -5 6 3 10 1 10 -6 0 -8 4
-8 16 1 12 11 15 11 12 -1 -2 -8 3 -13 11 -11 9 2 11 -3 7 -14 -4 -12 -2 -15
9 -10 8 3 15 1 15 -4 0 -5 7 -7 15 -3 9 3 15 2 14 -3 -4 -26 2 -35 21 -29 12
4 20 2 20 -5 0 -6 -5 -8 -12 -4 -9 5 -9 2 1 -9 7 -9 19 -17 27 -17 8 0 11 -8
9 -21 -4 -17 -2 -19 11 -8 12 10 13 9 9 -4 -4 -8 -1 -18 6 -23 8 -5 10 -3 4 7
-5 8 -4 11 1 6 5 -5 9 -16 9 -25 0 -9 5 -16 12 -15 6 1 10 -8 9 -22 -2 -13 2
-23 8 -22 6 1 10 -4 8 -10 -1 -7 3 -13 10 -13 9 0 9 -3 1 -11 -15 -15 -5 -39
14 -39 13 0 13 -2 2 -17 -12 -14 -12 -16 0 -8 11 6 13 3 9 -13 -4 -12 -2 -22
3 -22 5 0 9 -5 9 -11 0 -5 -4 -7 -10 -4 -6 3 -7 -1 -4 -9 3 -9 11 -13 18 -9 6
4 5 -1 -3 -10 -10 -13 -10 -17 -1 -17 10 0 10 -3 0 -15 -7 -8 -9 -15 -4 -15 5
0 9 -13 9 -30 0 -36 -3 -37 -15 -7 -8 19 -8 18 -7 -10 1 -17 5 -29 10 -26 4 2
7 -1 7 -6 0 -6 -4 -11 -8 -11 -4 0 -8 -17 -8 -37 0 -22 -5 -38 -13 -41 -8 -3
-11 0 -7 6 3 6 2 13 -3 16 -10 6 -9 -12 1 -29 7 -13 -8 -55 -21 -55 -5 0 -8
-9 -6 -20 2 -11 -1 -19 -8 -17 -7 1 -11 -4 -10 -10 2 -7 -3 -13 -11 -13 -10 0
-13 -7 -11 -21 4 -18 2 -19 -12 -7 -11 8 -14 9 -10 1 10 -16 -71 -95 -87 -86
-6 4 -5 -1 3 -10 12 -15 12 -17 -3 -11 -11 4 -16 1 -16 -12 0 -15 -2 -16 -9
-5 -7 11 -11 10 -19 -4 -6 -12 -16 -16 -26 -12 -9 4 -15 3 -11 -2 7 -12 -61
-35 -80 -27 -9 3 -12 0 -9 -8 4 -9 -6 -13 -36 -12 -22 1 -40 -2 -40 -6 0 -4
-7 -5 -15 -2 -8 4 -23 0 -32 -7 -15 -12 -16 -12 -10 4 3 9 4 17 0 17 -3 0 -12
-8 -20 -17 -8 -10 -11 -12 -7 -4 5 11 3 13 -9 8 -10 -4 -17 -1 -18 6 0 9 -2 9
-6 0 -3 -9 -10 -10 -21 -4 -9 5 -30 7 -47 5 -18 -2 -25 0 -17 5 17 10 -2 19
-35 16 -12 -1 -20 2 -17 7 5 8 -5 11 -39 11 -13 0 -15 3 -7 12 8 10 4 13 -20
11 -32 -2 -37 3 -18 22 9 9 6 11 -10 7 -16 -3 -22 1 -22 13 0 15 -2 15 -10 2
-8 -13 -10 -13 -10 1 0 9 -7 20 -16 23 -8 3 -13 10 -9 15 3 6 -4 8 -16 6 -18
-4 -19 -2 -8 11 10 12 10 15 -2 12 -8 -2 -13 4 -13 14 1 11 -4 14 -14 11 -10
-4 -13 -2 -8 5 4 7 2 12 -4 12 -6 0 -8 5 -5 10 3 6 -2 10 -12 11 -11 0 -13 3
-5 6 8 3 5 11 -10 25 -13 11 -18 17 -11 14 6 -4 15 -2 18 4 4 6 3 10 -2 9 -22
-4 -32 2 -26 17 4 10 0 20 -9 25 -10 6 -15 20 -14 39 1 16 -3 30 -8 30 -6 0
-4 5 4 10 14 9 7 14 -15 11 -5 -1 -1 6 9 14 14 11 16 15 5 15 -20 0 -19 90 1
108 8 8 10 11 4 8 -7 -3 -14 3 -17 15 -4 15 -2 18 7 10 10 -8 12 -4 11 19 -1
17 2 30 7 30 4 0 8 5 8 11 0 5 -6 7 -12 4 -7 -4 -5 0 5 8 10 9 17 17 16 19 -7
9 11 49 20 43 7 -4 8 0 5 10 -8 20 15 65 33 65 7 0 12 6 10 13 -1 6 4 11 11 9
8 -1 11 2 7 8 -3 5 -1 10 5 10 6 0 8 5 5 10 -3 6 -1 10 5 10 6 0 8 5 4 13 -5
7 0 6 11 -3 10 -8 16 -10 12 -3 -5 7 1 17 13 23 11 6 17 16 14 22 -5 7 -2 8 6
3 7 -4 16 -2 21 6 4 8 13 14 18 14 6 0 17 9 26 20 9 11 13 13 9 5 -7 -13 -5
-13 9 -2 9 8 22 10 28 6 7 -4 9 -3 6 3 -10 15 16 34 32 23 16 -9 43 -2 36 9
-3 7 18 10 78 12 9 0 17 5 17 10 0 6 5 7 10 4 6 -4 8 -11 4 -16z m-734 -1129
c0 -5 -2 -10 -4 -10 -3 0 -8 5 -11 10 -3 6 -1 10 4 10 6 0 11 -4 11 -10z"/>
<path d="M8494 7674 c3 -7 -5 -14 -19 -16 -15 -3 -25 -1 -25 6 0 6 -5 4 -10
-4 -7 -11 -10 -11 -10 -2 0 9 -5 10 -18 3 -13 -7 -23 -6 -32 2 -10 9 -11 9 -6
0 5 -9 0 -13 -13 -13 -12 0 -21 -6 -21 -12 0 -9 -3 -9 -9 1 -8 12 -12 12 -24
2 -12 -9 -16 -9 -20 1 -4 11 -6 10 -6 0 -1 -7 -5 -10 -11 -7 -5 3 -10 1 -10
-5 0 -6 -4 -8 -10 -5 -5 3 -10 0 -10 -7 0 -10 -3 -9 -10 2 -8 12 -10 12 -16
-3 -5 -13 -10 -15 -19 -7 -10 8 -17 5 -29 -12 -11 -15 -16 -17 -16 -8 0 13 -2
13 -9 1 -5 -7 -14 -10 -20 -7 -6 4 -11 0 -11 -9 0 -9 -5 -13 -10 -10 -6 3 -13
0 -16 -8 -3 -8 -16 -13 -30 -11 -22 2 -23 0 -12 -14 10 -12 10 -14 0 -8 -7 4
-25 -2 -41 -13 -16 -12 -34 -21 -41 -21 -6 0 -9 -4 -6 -8 3 -5 -6 -15 -19 -22
-14 -7 -25 -17 -25 -22 0 -5 -4 -6 -10 -3 -5 3 -10 -1 -10 -10 0 -11 -5 -15
-15 -11 -8 3 -15 1 -15 -4 0 -15 -57 -69 -65 -62 -4 4 -6 0 -3 -8 3 -8 -8 -27
-25 -42 -17 -16 -27 -28 -22 -28 4 0 -2 -9 -14 -19 -16 -14 -18 -21 -9 -24 8
-4 7 -6 -4 -6 -16 -1 -23 -12 -19 -33 0 -5 -6 -8 -14 -8 -8 0 -14 -3 -13 -7 4
-15 -15 -58 -31 -70 -11 -9 -12 -12 -3 -13 10 0 9 -4 -2 -16 -9 -8 -14 -19
-11 -24 3 -5 1 -11 -5 -15 -5 -3 -10 -15 -10 -26 0 -10 -5 -19 -11 -19 -6 0
-8 -9 -4 -21 5 -14 1 -25 -12 -34 -14 -11 -15 -14 -3 -15 9 0 11 -3 5 -8 -20
-14 -34 -59 -22 -71 8 -8 8 -11 -2 -11 -11 0 -11 -3 0 -17 9 -10 9 -14 2 -10
-9 6 -11 -2 -9 -28 1 -20 -2 -35 -8 -35 -6 0 -4 -5 4 -10 11 -7 11 -10 2 -10
-10 0 -10 -5 -2 -20 8 -15 8 -20 -2 -20 -9 0 -9 -3 2 -10 11 -7 11 -10 2 -10
-7 0 -10 -5 -6 -12 4 -6 7 -30 7 -52 0 -23 5 -47 11 -55 8 -11 8 -13 -1 -7 -8
4 -13 2 -13 -8 0 -8 6 -16 12 -18 8 -3 12 -19 10 -42 -3 -29 -1 -36 9 -31 8 5
10 4 5 -3 -4 -6 -2 -21 5 -33 8 -15 8 -19 0 -15 -18 11 -13 -5 7 -21 9 -8 11
-11 3 -7 -10 5 -12 3 -5 -7 4 -8 9 -20 11 -28 1 -7 7 -19 14 -25 9 -8 10 -8 4
3 -5 9 -4 12 2 8 6 -4 8 -19 5 -33 -3 -19 -1 -25 7 -20 6 4 11 1 11 -7 0 -16
29 -77 36 -77 3 0 2 5 -2 12 -4 7 -3 8 4 4 6 -4 9 -13 5 -21 -3 -8 0 -15 7
-15 7 0 10 -7 7 -15 -4 -8 -1 -17 5 -21 7 -5 8 -2 3 6 -5 9 -4 11 3 6 7 -4 12
-14 12 -22 0 -8 5 -12 10 -9 6 3 10 -3 10 -15 0 -12 4 -19 8 -16 5 3 15 -6 22
-19 7 -14 17 -25 22 -25 4 0 8 -7 8 -16 0 -9 5 -12 12 -8 8 5 9 2 5 -10 -4
-11 -3 -15 4 -10 12 7 51 -30 42 -40 -4 -3 -2 -6 3 -6 6 0 20 -9 32 -20 12
-11 25 -21 29 -23 5 -1 7 -5 5 -10 -1 -4 1 -6 5 -6 23 4 43 -2 38 -11 -3 -5 1
-10 9 -10 9 0 16 -5 16 -11 0 -5 5 -7 10 -4 6 3 10 2 10 -4 0 -5 9 -13 20 -16
12 -4 17 -11 13 -18 -4 -7 1 -6 10 2 11 9 17 10 17 2 0 -6 7 -11 15 -11 8 0
15 -5 15 -11 0 -5 5 -7 11 -4 6 4 17 -1 25 -11 9 -11 13 -14 10 -7 -4 7 6 5
26 -5 33 -16 57 -22 91 -23 11 0 15 -5 10 -12 -4 -7 2 -5 12 3 11 9 16 10 11
3 -4 -8 -1 -13 9 -13 10 0 14 5 10 13 -4 6 -1 5 7 -3 7 -9 21 -14 32 -12 12 3
16 0 11 -8 -6 -9 -2 -9 15 0 18 10 24 9 31 -1 6 -10 10 -10 23 0 13 11 16 11
16 0 0 -11 2 -11 10 1 7 10 10 11 10 2 0 -12 27 -11 63 3 12 5 17 2 17 -11 0
-17 1 -16 16 2 8 10 12 12 8 4 -6 -12 -5 -13 7 -3 9 7 20 9 29 3 9 -5 19 -5
27 1 7 6 17 8 23 4 5 -3 10 2 10 12 0 11 3 14 8 7 12 -17 42 -25 36 -9 -4 9 3
13 25 11 20 -1 31 3 31 11 0 7 6 10 15 7 9 -4 15 0 15 7 0 12 2 12 9 1 6 -11
10 -10 15 3 5 15 9 15 23 4 12 -10 14 -10 9 -1 -4 6 -4 12 1 13 29 3 47 9 54
21 5 7 9 9 9 3 0 -5 5 -2 11 7 5 9 16 15 23 12 8 -3 19 4 26 15 6 12 16 21 22
21 6 0 17 8 25 18 8 9 12 12 9 6 -3 -6 1 -11 8 -11 9 0 12 7 8 15 -4 11 -1 14
12 9 10 -4 15 -3 11 3 -3 6 -1 10 5 10 6 0 8 5 5 10 -3 6 1 10 10 10 10 0 13
5 9 12 -5 8 -2 9 9 5 12 -4 17 -1 17 10 0 9 3 13 6 10 8 -7 44 31 44 45 0 5 4
7 9 4 5 -3 14 8 21 24 7 16 21 32 31 35 10 4 18 12 16 18 -1 7 4 11 12 9 12
-3 12 -1 0 14 -9 12 -10 15 -1 10 8 -5 15 2 22 18 5 14 14 26 19 26 6 0 7 7 4
17 -4 10 -2 14 4 10 5 -3 16 6 24 21 7 15 20 35 28 45 14 16 13 17 -5 11 -16
-7 -17 -5 -7 7 10 13 10 16 -2 16 -8 0 -15 -5 -15 -11 0 -7 -3 -7 -8 -1 -9 13
-35 18 -27 5 3 -5 2 -10 -4 -10 -5 0 -13 5 -16 10 -4 7 -13 7 -26 0 -11 -6
-19 -7 -19 -1 0 12 -33 9 -42 -4 -5 -6 -8 -4 -8 5 0 13 -1 13 -10 0 -5 -8 -10
-10 -10 -4 0 6 -7 11 -15 11 -8 0 -12 -4 -9 -9 3 -4 1 -8 -5 -8 -5 0 -13 5
-16 10 -4 7 -13 7 -26 0 -11 -6 -19 -7 -19 -1 0 12 -33 9 -42 -4 -5 -6 -8 -4
-8 5 0 13 -1 13 -10 0 -5 -8 -10 -10 -10 -4 0 6 -7 11 -15 11 -8 0 -12 -4 -9
-9 3 -4 1 -8 -5 -8 -5 0 -13 5 -16 10 -5 8 -11 7 -21 -1 -11 -9 -14 -9 -14 1
0 10 -3 10 -14 1 -9 -8 -16 -8 -20 -2 -4 6 -13 8 -21 5 -8 -4 -13 -10 -10 -14
6 -10 -24 -22 -35 -15 -5 3 -7 -4 -5 -16 2 -12 2 -19 -2 -15 -3 3 -13 -3 -21
-15 -8 -11 -20 -18 -29 -15 -8 3 -12 2 -9 -2 6 -10 -30 -43 -38 -35 -3 4 -6 1
-6 -5 0 -6 -6 -9 -14 -6 -7 3 -16 -1 -19 -9 -3 -8 -17 -12 -36 -11 -23 1 -29
-1 -22 -9 11 -14 -56 -16 -78 -2 -9 5 -12 4 -7 -3 3 -6 2 -13 -4 -17 -5 -3
-10 -2 -10 2 0 11 -61 10 -79 -2 -10 -6 -12 -4 -6 5 6 10 3 12 -13 8 -12 -3
-29 0 -39 7 -12 9 -22 10 -29 4 -8 -6 -17 -4 -28 6 -11 11 -16 13 -16 4 0 -7
-6 -5 -13 6 -8 10 -19 15 -24 12 -6 -4 -13 0 -17 8 -3 8 -12 15 -19 15 -8 0
-22 9 -32 20 -10 11 -21 17 -25 15 -4 -3 -16 6 -26 20 -10 13 -21 22 -26 19
-4 -3 -8 -1 -8 4 0 5 -15 24 -32 42 -18 18 -27 30 -19 25 10 -5 9 -1 -2 16 -9
13 -16 28 -16 32 1 5 -3 12 -7 15 -4 4 -4 1 1 -7 5 -9 4 -12 -3 -8 -5 4 -9 18
-8 32 2 14 -5 32 -15 41 -13 12 -16 22 -9 39 7 18 5 25 -7 29 -14 6 -14 9 2
26 20 22 40 27 29 8 -6 -10 -4 -10 7 0 15 14 33 17 25 4 -3 -5 1 -9 9 -9 8 0
12 4 9 9 -3 4 2 8 11 8 9 0 14 -4 11 -9 -4 -5 6 -7 21 -5 16 3 38 5 51 5 13
-1 20 4 17 9 -3 6 1 7 9 4 9 -3 13 -11 9 -17 -3 -6 -1 -7 6 -3 21 14 83 17 75
5 -5 -8 -2 -9 11 -2 10 6 27 8 38 5 13 -3 18 -1 13 6 -5 8 -2 10 8 6 9 -3 13
-11 9 -17 -3 -6 -1 -7 6 -3 18 12 94 18 87 8 -3 -5 1 -9 9 -9 8 0 12 4 9 9 -3
4 2 8 11 8 9 0 14 -4 11 -9 -7 -10 20 -9 30 2 11 10 26 8 19 -2 -5 -10 33 -6
43 3 2 3 14 1 25 -5 11 -6 17 -7 13 -1 -3 5 5 10 19 10 15 0 22 -5 18 -12 -3
-6 0 -6 8 2 15 14 33 17 25 4 -3 -5 1 -9 9 -9 8 0 12 4 9 9 -3 4 2 8 11 8 9 0
14 -4 11 -9 -4 -5 6 -7 21 -5 16 3 38 5 51 5 13 -1 20 4 17 9 -3 6 1 7 9 4 9
-3 13 -11 9 -17 -3 -6 -1 -7 6 -3 18 12 94 18 87 8 -3 -5 1 -9 9 -9 8 0 12 4
9 9 -3 4 2 8 11 8 9 0 14 -4 11 -9 -7 -10 20 -9 30 2 11 10 26 8 19 -2 -5 -10
33 -6 43 3 2 3 14 1 25 -5 11 -6 17 -7 13 -1 -3 5 5 10 19 10 15 0 22 -5 18
-12 -3 -6 0 -6 8 2 15 14 33 17 25 4 -3 -5 1 -9 9 -9 8 0 12 4 9 9 -3 4 2 8
11 8 9 0 14 -4 11 -8 -3 -5 1 -9 9 -9 8 0 12 4 9 9 -3 4 2 8 11 8 9 0 14 -4
11 -8 -3 -5 1 -9 9 -9 8 0 12 4 9 9 -3 4 2 8 11 8 9 0 14 -4 11 -9 -7 -10 20
-9 30 2 11 10 26 8 19 -2 -6 -10 17 -8 49 5 14 5 17 4 11 -5 -4 -7 5 -5 19 5
21 13 24 19 14 26 -8 5 -9 11 -3 16 14 10 17 32 5 32 -7 0 -7 6 0 20 8 15 8
20 -2 20 -8 0 -9 3 -3 8 13 9 18 32 7 32 -5 0 -9 7 -9 15 0 8 5 15 10 15 5 0
4 7 -3 15 -9 11 -9 15 -1 15 7 0 9 5 6 10 -4 6 -11 8 -16 5 -5 -4 -9 -1 -9 4
0 6 8 11 18 11 15 1 16 1 0 10 -10 6 -15 21 -14 40 1 16 -1 30 -5 30 -9 0 -6
21 5 39 6 9 5 12 -1 8 -6 -4 -14 0 -17 9 -4 10 -2 13 7 9 6 -4 3 1 -7 9 -15
12 -16 16 -5 16 12 0 12 2 0 9 -8 5 -10 14 -6 21 5 8 4 11 -3 6 -15 -9 -21 15
-10 38 7 12 7 16 0 12 -5 -3 -16 2 -23 11 -12 14 -12 16 1 8 12 -6 13 -5 3 6
-7 7 -13 21 -13 32 0 22 -24 49 -36 39 -5 -4 -2 2 6 12 10 13 10 17 3 12 -8
-4 -13 -1 -13 8 0 9 -5 16 -11 16 -5 0 -7 5 -4 10 3 6 0 10 -7 10 -9 0 -9 3 2
10 12 8 11 10 -7 10 -17 0 -21 4 -16 17 4 11 3 14 -5 9 -8 -4 -12 0 -12 11 0
10 -9 25 -20 33 -11 8 -20 19 -20 25 0 14 -37 45 -53 45 -8 0 -7 4 3 10 13 8
13 10 0 10 -8 0 -23 10 -35 23 -11 13 -15 16 -10 7 9 -13 8 -13 -7 -1 -10 7
-18 20 -18 28 0 8 -4 12 -8 9 -5 -3 -14 4 -22 14 -8 10 -17 17 -22 14 -4 -3
-8 0 -8 6 0 7 -7 9 -16 6 -8 -3 -13 -2 -10 2 2 4 -9 14 -26 21 -23 10 -27 16
-17 23 10 7 8 8 -8 5 -13 -3 -23 -1 -23 5 0 6 -7 7 -16 4 -8 -3 -12 -2 -9 4 3
6 -3 10 -14 10 -12 0 -21 5 -21 11 0 5 -4 8 -9 4 -5 -3 -16 2 -24 10 -8 8 -30
16 -47 17 -18 1 -35 9 -38 17 -4 11 -7 10 -13 -5 -7 -17 -8 -17 -8 -1 -1 10
-5 15 -11 12 -5 -3 -10 0 -10 7 0 8 -3 9 -8 3 -9 -13 -32 -17 -32 -6 0 5 -7
12 -16 15 -8 3 -13 2 -10 -3 4 -5 -3 -7 -14 -4 -11 3 -17 10 -13 17 4 6 0 5
-9 -2 -11 -9 -18 -10 -23 -2 -4 6 -12 7 -22 1 -9 -5 -29 -5 -45 -1 -16 5 -30
5 -34 -1 -3 -6 -12 -3 -21 8 -8 10 -12 13 -9 7z m138 -426 c10 -2 21 -7 24
-11 10 -10 26 -9 20 1 -3 5 1 9 9 9 8 0 14 -3 13 -6 -2 -20 3 -31 12 -26 16
10 52 -5 47 -19 -4 -9 3 -12 19 -10 13 1 24 -2 24 -7 0 -5 7 -9 15 -9 8 0 15
-7 15 -16 0 -8 5 -12 10 -9 6 3 10 2 10 -3 0 -5 10 -14 23 -21 18 -9 18 -11 2
-6 -19 5 -19 4 -2 -9 9 -7 17 -18 17 -24 0 -6 4 -14 10 -17 6 -4 7 1 3 12 -6
15 -5 15 8 3 8 -7 16 -23 17 -34 0 -11 6 -22 12 -24 5 -2 10 -12 10 -23 0 -10
5 -19 10 -19 6 0 10 -5 10 -11 0 -5 -6 -7 -12 -4 -7 4 -6 1 3 -7 9 -7 14 -19
12 -25 -3 -7 0 -13 7 -13 6 0 9 -4 5 -9 -3 -5 -1 -12 5 -16 7 -4 7 -12 0 -24
-5 -10 -7 -21 -4 -24 3 -3 0 -8 -6 -12 -6 -3 -10 -3 -9 2 3 20 -2 27 -11 13
-8 -13 -10 -12 -10 3 0 17 -1 17 -16 2 -14 -13 -19 -14 -25 -3 -7 11 -11 10
-19 -2 -9 -13 -14 -7 -11 12 0 4 -6 5 -14 2 -8 -4 -13 -10 -10 -14 3 -5 -9 -5
-26 0 -26 8 -30 7 -25 -6 3 -9 1 -12 -4 -9 -6 3 -10 13 -10 21 0 13 -2 13 -16
-1 -14 -13 -19 -14 -26 -3 -8 11 -10 11 -15 0 -4 -10 -8 -9 -19 5 -12 16 -13
16 -8 -7 5 -21 4 -23 -6 -7 -9 14 -15 15 -32 6 -15 -8 -19 -8 -14 0 4 6 3 11
-3 11 -5 0 -12 -6 -14 -12 -3 -8 -6 -5 -6 5 -1 17 -2 17 -17 2 -14 -13 -19
-14 -26 -3 -8 11 -10 11 -15 0 -4 -10 -8 -9 -19 5 -12 16 -13 16 -8 -7 5 -21
4 -23 -6 -7 -9 14 -15 15 -32 6 -12 -6 -18 -7 -14 -1 4 6 -13 8 -45 5 -33 -3
-56 1 -67 9 -13 11 -15 11 -10 -4 6 -14 2 -15 -22 -8 -20 6 -30 5 -34 -3 -2
-7 -5 -4 -5 6 -1 17 -2 17 -17 2 -14 -13 -19 -14 -26 -3 -8 11 -10 11 -15 0
-4 -10 -8 -9 -19 5 -12 16 -13 16 -8 -7 5 -21 4 -23 -6 -7 -9 14 -15 15 -32 6
-11 -6 -18 -7 -15 -2 3 5 -22 8 -56 7 -42 -1 -66 2 -75 12 -8 9 -9 14 -2 14 7
0 9 12 6 31 -2 17 -2 28 1 25 4 -3 12 -1 20 5 10 9 10 15 2 25 -9 11 -8 14 1
14 8 0 10 3 7 7 -4 3 1 12 11 20 9 8 11 11 4 8 -11 -6 -12 -3 -3 14 7 11 16
21 22 21 6 0 7 5 4 10 -3 6 -1 10 4 10 6 0 10 3 9 8 -4 10 39 52 46 45 3 -4 6
-1 6 6 0 20 27 43 33 28 3 -7 6 -4 6 6 1 10 6 15 11 12 6 -3 10 -1 10 5 0 6 4
9 9 6 5 -3 11 1 15 9 3 8 12 15 21 15 8 0 15 6 15 13 0 8 3 7 10 -3 8 -12 10
-12 16 4 5 14 9 15 15 4 7 -11 9 -11 9 1 0 7 6 11 15 7 8 -3 15 0 15 6 0 7 5
6 15 -2 12 -10 16 -9 20 2 4 11 27 14 103 12 53 -1 105 -4 114 -6z m-1052
-388 c0 -5 -5 -10 -11 -10 -5 0 -7 5 -4 10 3 6 8 10 11 10 2 0 4 -4 4 -10z
m645 -670 c3 -5 1 -10 -4 -10 -6 0 -11 5 -11 10 0 6 2 10 4 10 3 0 8 -4 11
-10z"/>
<path d="M8135 7080 c3 -5 8 -10 11 -10 2 0 4 5 4 10 0 6 -5 10 -11 10 -5 0
-7 -4 -4 -10z"/>
<path d="M10365 7661 c-11 -4 -35 -7 -52 -7 -18 1 -33 -3 -33 -8 0 -5 -3 -6
-7 -3 -3 4 -13 1 -21 -6 -13 -10 -14 -9 -7 3 7 13 6 13 -7 2 -13 -10 -17 -10
-21 0 -4 10 -6 10 -6 1 -1 -7 -8 -13 -17 -13 -8 0 -13 -4 -10 -8 3 -5 -8 -8
-24 -7 -17 1 -30 -2 -30 -7 0 -5 -4 -6 -10 -3 -5 3 -10 1 -10 -6 0 -6 -8 -9
-19 -6 -15 3 -18 1 -14 -11 4 -9 2 -13 -4 -9 -6 4 -22 -3 -37 -14 -14 -11 -30
-17 -36 -14 -5 3 -10 0 -10 -8 0 -8 -7 -18 -16 -21 -10 -4 -13 -2 -9 7 4 6 -1
3 -9 -7 -9 -11 -16 -24 -16 -30 0 -5 -3 -7 -6 -3 -9 9 -44 -25 -37 -37 3 -6 3
-8 -2 -4 -8 8 -40 -20 -40 -36 0 -6 -11 -16 -25 -23 -14 -7 -18 -13 -10 -13 9
0 11 -3 5 -8 -6 -4 -16 -19 -24 -34 -8 -15 -18 -25 -22 -22 -4 2 -6 -5 -4 -16
3 -13 -1 -20 -12 -20 -13 0 -13 -3 -3 -15 9 -10 9 -15 1 -15 -6 0 -11 -16 -11
-36 0 -19 -4 -33 -9 -29 -5 3 -13 1 -16 -5 -4 -6 -3 -10 2 -9 22 4 25 -2 7
-16 -13 -10 -14 -14 -5 -15 10 0 11 -3 2 -14 -7 -8 -8 -17 -3 -20 13 -8 2 -67
-12 -59 -6 3 -6 0 2 -8 6 -7 12 -23 12 -36 0 -13 4 -23 9 -23 6 0 8 -9 6 -20
-2 -11 0 -20 6 -20 5 0 9 -5 9 -11 0 -5 -6 -7 -12 -4 -7 4 -5 0 5 -8 10 -8 19
-24 20 -35 0 -11 4 -20 7 -20 20 2 30 -4 30 -18 0 -8 7 -22 15 -31 8 -8 12
-19 9 -25 -4 -7 2 -7 17 -3 22 7 23 7 9 -10 -9 -11 -10 -16 -2 -11 6 4 12 3
12 -3 0 -6 7 -7 17 -4 9 4 14 2 11 -3 -3 -5 4 -18 15 -29 11 -11 16 -13 12 -5
-8 13 -7 13 10 0 10 -8 20 -13 22 -12 3 2 8 0 11 -4 4 -4 1 -4 -5 0 -7 4 -13
2 -13 -5 0 -6 8 -9 20 -6 11 3 25 -2 32 -12 12 -15 11 -15 -7 -1 -18 14 -19
14 -7 -1 7 -9 23 -15 37 -13 17 1 25 -3 25 -13 0 -9 6 -13 15 -10 8 4 17 2 21
-4 3 -6 13 -8 21 -5 8 3 11 1 8 -4 -3 -6 3 -10 15 -10 14 0 19 -4 14 -12 -5
-8 0 -7 11 2 15 12 17 12 10 1 -6 -11 -4 -13 8 -8 10 3 17 2 17 -4 0 -6 4 -8
9 -5 5 4 12 0 14 -6 4 -10 6 -10 6 0 1 8 8 6 23 -8 12 -11 27 -20 32 -20 6 0
4 5 -4 10 -8 5 -10 10 -4 10 5 0 20 -9 32 -20 21 -20 37 -27 28 -12 -3 5 1 9
9 9 8 0 14 -3 13 -6 0 -3 0 -13 1 -21 1 -13 3 -13 10 -1 8 12 12 12 25 2 8 -7
20 -10 26 -6 5 3 13 -1 16 -9 3 -9 10 -13 15 -10 5 3 9 0 9 -5 0 -6 5 -11 11
-11 5 0 7 6 4 13 -4 6 3 1 15 -13 12 -14 19 -19 15 -12 -3 6 -1 12 4 12 6 0
11 -7 11 -15 0 -8 5 -15 11 -15 5 0 7 4 4 10 -3 6 1 7 9 4 9 -3 13 -10 10 -15
-3 -5 4 -9 16 -9 11 0 23 -7 26 -15 4 -8 10 -12 15 -9 5 3 9 -2 9 -11 0 -9 5
-13 10 -10 6 3 10 0 10 -7 0 -8 9 -20 20 -28 14 -10 16 -17 9 -26 -7 -8 -6
-15 2 -20 8 -5 9 -3 4 6 -6 9 -4 11 4 5 9 -5 10 -10 2 -18 -8 -8 -6 -16 7 -31
10 -12 12 -16 3 -11 -11 6 -13 4 -8 -8 3 -9 1 -18 -6 -21 -7 -2 -3 -5 8 -5 16
-1 17 -3 5 -10 -8 -6 -17 -8 -21 -5 -4 2 -5 -6 -1 -18 4 -17 2 -20 -13 -14
-15 5 -16 4 -6 -8 10 -12 8 -16 -8 -21 -11 -3 -23 -15 -27 -27 -5 -16 -8 -18
-15 -7 -7 11 -9 11 -9 -3 0 -11 -5 -15 -15 -12 -8 4 -15 1 -15 -6 0 -6 -4 -8
-10 -5 -5 3 -10 1 -10 -5 0 -6 -4 -8 -10 -5 -5 3 -10 0 -10 -7 0 -8 -3 -9 -8
-3 -10 14 -36 12 -55 -3 -11 -9 -17 -10 -22 -2 -4 6 -14 10 -23 9 -10 -1 -19
0 -22 1 -3 1 -15 3 -28 6 -16 3 -21 0 -17 -8 4 -7 -2 -3 -13 10 -11 12 -26 22
-34 22 -20 0 -71 58 -62 71 4 7 3 10 -2 7 -5 -3 -15 0 -22 8 -10 11 -10 14 0
14 10 0 10 2 -1 9 -7 5 -11 14 -7 20 5 7 1 8 -11 4 -16 -6 -17 -5 -3 13 14 19
14 19 -8 0 -16 -14 -22 -15 -22 -6 0 9 -5 7 -15 -6 -9 -11 -13 -13 -10 -4 4
11 -2 15 -19 15 -13 0 -22 -3 -19 -7 7 -12 -5 -9 -40 9 -31 16 -32 16 -17 -3
8 -10 10 -16 6 -12 -5 4 -16 2 -24 -5 -10 -8 -13 -8 -9 -1 4 7 0 14 -8 18 -8
3 -15 0 -15 -7 0 -8 -4 -6 -10 3 -8 13 -10 12 -10 -4 0 -18 -1 -18 -17 1 -10
10 -15 14 -10 7 5 -8 0 -10 -18 -6 -14 2 -31 -1 -39 -7 -11 -10 -17 -8 -25 6
-6 11 -11 13 -11 5 0 -7 -5 -10 -10 -7 -6 4 -7 11 -4 17 4 7 2 8 -4 4 -7 -4
-12 -14 -12 -22 0 -13 -3 -13 -17 2 -12 11 -18 13 -21 5 -3 -9 -7 -9 -18 0
-11 9 -14 8 -14 -5 0 -10 -5 -14 -10 -11 -6 4 -8 11 -5 16 4 5 1 9 -4 9 -6 0
-11 -5 -11 -11 0 -5 -4 -8 -9 -4 -6 3 -8 -4 -5 -17 3 -13 6 -28 8 -35 1 -7 5
-16 9 -19 4 -4 7 -12 7 -18 0 -6 -5 -4 -10 4 -7 10 -10 11 -10 2 0 -7 7 -15
15 -18 12 -5 13 -10 4 -20 -9 -11 -8 -14 5 -14 10 0 14 -4 11 -10 -3 -5 -1
-10 4 -10 6 0 11 -5 11 -11 0 -5 -6 -7 -12 -4 -7 4 -4 -1 6 -9 11 -9 14 -16 7
-16 -7 0 -9 -5 -6 -10 4 -6 11 -8 16 -5 5 4 9 -3 9 -14 0 -11 6 -24 14 -28 8
-4 16 -12 18 -18 2 -5 6 -9 10 -8 4 2 4 -5 1 -14 -4 -11 -3 -14 5 -9 11 6 17
-5 13 -26 -1 -8 15 -12 32 -9 5 1 6 -3 2 -8 -3 -6 4 -15 15 -21 11 -6 18 -15
15 -19 -3 -5 2 -12 11 -15 10 -4 13 -2 9 7 -4 6 0 4 8 -6 8 -10 24 -19 35 -20
11 0 18 -5 16 -9 -3 -5 -11 -5 -17 -2 -8 5 -8 3 0 -6 7 -8 20 -15 29 -16 33
-5 74 -27 68 -36 -3 -5 0 -9 7 -7 32 4 50 -1 43 -13 -5 -10 -4 -10 6 -1 10 9
16 9 26 -1 7 -8 27 -12 44 -11 22 2 30 -2 30 -14 0 -13 2 -13 9 -2 6 10 10 10
16 1 4 -7 17 -9 31 -6 14 4 24 2 24 -4 0 -5 5 -10 11 -10 5 0 7 6 3 13 -5 8
-2 8 9 -2 13 -10 17 -10 17 -1 0 9 8 7 26 -5 15 -9 24 -13 20 -7 -9 16 18 21
37 7 9 -6 16 -14 14 -16 -1 -2 3 1 9 8 8 9 13 10 22 1 9 -9 12 -7 12 8 0 16 2
17 10 4 5 -8 10 -11 10 -6 0 5 7 3 15 -4 13 -11 14 -10 10 2 -4 11 5 14 50 13
30 0 55 3 55 8 0 4 5 5 11 1 6 -3 15 0 20 7 8 12 11 12 19 -1 5 -8 10 -10 10
-5 0 6 9 16 21 23 12 8 18 9 14 3 -3 -6 -1 -11 4 -11 6 0 11 5 11 10 0 6 6 10
14 10 8 0 17 6 19 13 4 9 6 9 6 0 1 -7 8 -10 16 -7 8 4 12 10 9 16 -3 5 0 9 7
7 26 -3 40 1 34 10 -3 6 4 8 15 6 11 -2 18 0 15 6 -6 9 7 13 33 10 6 -1 12 2
12 8 0 5 -6 12 -12 15 -7 3 -4 4 7 3 13 -1 19 3 17 13 -2 8 0 12 3 8 10 -10
47 11 40 22 -3 6 1 7 10 4 10 -4 15 -2 13 7 -2 8 4 13 14 13 11 -1 14 4 10 14
-4 12 -1 14 13 9 15 -6 16 -5 5 8 -11 13 -10 14 5 9 13 -5 16 -4 11 4 -4 7 -2
12 5 12 7 0 9 3 6 7 -4 3 3 13 14 21 17 12 18 16 8 23 -12 7 -11 9 1 10 8 1
18 1 22 0 4 0 5 10 2 24 -3 18 -1 23 10 19 8 -3 14 0 13 8 -1 31 4 49 12 44 5
-4 8 2 6 11 -1 10 4 29 12 42 13 21 13 23 1 19 -8 -4 -15 0 -15 7 0 7 6 11 12
9 8 -4 12 10 11 46 -1 27 2 50 6 50 4 0 5 6 2 14 -11 28 -10 101 0 115 9 12 7
12 -14 1 -22 -12 -24 -12 -12 2 8 10 9 19 3 22 -5 3 -7 15 -4 26 3 12 0 20 -7
20 -10 0 -10 3 0 16 11 12 11 15 0 12 -8 -2 -19 7 -25 20 -5 12 -13 22 -17 22
-5 0 -8 7 -8 15 0 8 -4 15 -10 15 -5 0 -10 7 -10 16 0 8 -4 13 -9 10 -5 -3
-11 4 -14 16 -4 12 -9 19 -12 16 -4 -4 -15 1 -25 10 -36 33 -49 42 -60 42 -5
0 -10 5 -10 10 0 6 -7 10 -15 10 -8 0 -15 5 -15 10 0 6 -9 10 -20 10 -11 0
-20 5 -20 10 0 6 -9 10 -20 10 -11 0 -20 5 -20 11 0 8 -6 7 -17 -2 -9 -8 -14
-9 -11 -4 4 6 -2 17 -14 24 -11 7 -17 8 -13 2 3 -6 1 -11 -4 -11 -6 0 -11 5
-11 10 0 6 -11 10 -25 10 -14 0 -25 4 -25 8 0 7 -18 11 -60 14 -8 1 -21 7 -28
15 -11 11 -17 11 -29 2 -11 -10 -13 -10 -11 1 2 9 -6 14 -22 14 -14 0 -30 7
-37 16 -11 13 -12 13 -13 0 0 -13 -1 -13 -10 0 -5 8 -10 11 -10 6 0 -5 -6 -3
-14 3 -8 6 -19 10 -24 9 -6 -2 -18 6 -27 17 -16 19 -16 19 -10 1 6 -19 5 -19
-13 -3 -10 9 -24 17 -31 17 -7 0 -9 5 -5 12 5 7 2 9 -8 6 -17 -7 -72 25 -61
35 3 4 -4 7 -17 7 -13 0 -21 3 -17 6 3 4 0 13 -8 21 -8 8 -18 26 -21 41 -3 15
-8 34 -11 42 -3 8 -7 23 -8 32 -1 14 1 15 12 6 11 -9 12 -7 7 7 -6 14 -4 16 7
10 12 -8 12 -6 0 8 -12 15 -9 21 11 18 4 0 5 8 3 19 -2 12 0 18 6 15 5 -4 9
-1 9 4 0 6 7 11 15 11 8 0 15 5 15 11 0 5 -6 7 -12 3 -8 -4 -9 -3 -5 2 5 5 16
9 25 9 9 0 16 6 14 13 -1 8 2 11 8 7 5 -3 18 -1 28 4 13 7 22 7 30 -1 9 -9 12
-9 12 1 0 11 3 11 15 1 8 -7 15 -8 15 -3 0 5 7 10 15 10 8 0 15 -4 15 -8 0 -9
20 -6 39 5 10 6 12 5 7 -2 -6 -11 6 -16 27 -13 4 0 7 -3 7 -9 0 -6 9 -10 21
-10 14 0 19 -5 16 -14 -4 -10 -1 -13 8 -10 15 6 35 -24 28 -44 -3 -7 1 -11 8
-10 12 3 14 -1 18 -33 1 -7 5 -8 14 -2 11 8 25 9 45 3 19 -6 38 -4 44 5 4 6 8
1 8 -10 0 -17 2 -17 10 -5 5 8 10 11 10 6 0 -5 8 -2 17 5 9 8 14 9 10 3 -4 -7
0 -15 9 -18 8 -3 12 -2 9 3 -3 5 -1 12 5 16 5 3 10 1 10 -6 0 -8 5 -7 17 2 9
8 14 9 11 4 -4 -6 3 -17 15 -25 20 -12 21 -12 9 3 -12 14 -11 16 5 15 10 -1
29 2 43 7 23 7 24 7 10 -10 -9 -11 -10 -16 -3 -11 7 4 22 9 34 11 11 2 30 7
42 11 20 6 21 5 7 -11 -14 -17 -14 -17 8 -6 12 6 22 9 22 5 0 -3 6 -1 14 5 11
10 17 8 25 -6 6 -11 11 -13 11 -5 0 7 5 10 12 6 7 -4 8 -3 4 4 -4 7 -2 12 4
12 7 0 5 7 -4 16 -21 20 -20 28 2 20 15 -5 15 -4 -2 8 -11 10 -16 21 -12 32 4
10 -1 25 -11 37 -13 14 -13 18 -3 12 12 -7 13 -6 3 7 -7 8 -10 18 -6 21 3 4
-2 7 -12 7 -14 0 -15 3 -6 14 9 11 9 16 0 22 -8 4 -9 3 -5 -4 4 -7 5 -12 2
-12 -3 0 -10 10 -17 21 -9 17 -8 20 3 14 7 -3 5 0 -5 8 -10 8 -19 24 -20 35 0
12 -6 18 -14 15 -7 -3 -13 0 -13 7 0 6 -4 8 -10 5 -6 -4 -7 1 -3 11 5 14 3 16
-12 10 -11 -4 -16 -4 -12 0 4 4 -1 13 -11 21 -16 12 -16 13 3 7 15 -4 13 -1
-5 9 -14 9 -28 13 -32 11 -5 -3 -8 2 -8 10 0 9 -5 16 -11 16 -5 0 -7 5 -3 12
4 6 3 8 -4 5 -15 -10 -43 3 -35 17 3 6 3 8 -2 4 -4 -4 -14 -3 -22 3 -7 6 -13
8 -13 3 0 -4 -7 1 -16 12 -8 10 -12 12 -8 4 7 -12 5 -13 -8 -3 -8 7 -19 9 -23
5 -5 -4 -5 -1 -1 6 6 11 -11 17 -36 13 -5 0 -8 4 -8 10 0 8 -6 7 -17 -2 -11
-10 -14 -10 -9 -1 7 12 5 13 -49 17 -16 1 -29 6 -28 11 1 6 -18 10 -43 9 -24
-1 -44 2 -44 8 0 5 -5 5 -13 -1 -8 -7 -18 -7 -27 -2 -9 5 -19 5 -27 -2 -9 -7
-13 -7 -13 2 0 10 -3 10 -15 0 -12 -10 -15 -10 -15 0 0 10 -3 10 -14 1 -8 -7
-16 -8 -18 -3 -1 5 -12 6 -23 3z"/>
<path d="M4680 7597 c0 -10 -4 -15 -10 -12 -16 10 -12 -21 4 -35 8 -6 13 -17
10 -24 -3 -8 2 -16 12 -20 13 -5 14 -9 4 -21 -9 -11 -9 -15 -1 -15 7 0 10 -4
6 -9 -3 -5 2 -17 11 -25 9 -9 11 -16 4 -16 -6 0 -8 -5 -5 -10 4 -6 11 -7 17
-4 6 4 8 -1 3 -15 -4 -12 -2 -21 4 -21 6 0 10 -3 10 -7 -4 -22 2 -33 14 -27 8
5 8 2 -2 -9 -11 -15 -11 -17 2 -17 10 0 13 -6 10 -20 -3 -12 0 -20 6 -20 7 0
10 -4 6 -9 -3 -5 2 -16 10 -24 16 -17 20 -32 6 -23 -5 4 -4 -5 2 -19 7 -14 15
-25 20 -25 4 0 7 -7 7 -15 0 -9 7 -30 16 -47 9 -16 11 -27 6 -24 -6 4 -14 2
-17 -4 -4 -6 -3 -10 2 -9 18 3 36 -1 30 -8 -4 -3 0 -17 9 -31 9 -13 12 -22 7
-19 -5 4 -10 0 -10 -8 0 -8 5 -13 11 -12 5 1 11 -2 11 -8 5 -36 19 -64 29 -58
8 5 8 3 -1 -8 -9 -11 -8 -18 1 -31 7 -10 17 -14 21 -10 4 4 2 -4 -4 -16 -7
-13 -10 -26 -7 -30 3 -3 6 1 6 9 0 7 8 -2 19 -21 10 -20 17 -48 16 -63 -3 -23
-1 -26 10 -17 11 9 13 6 11 -14 -2 -15 1 -26 7 -26 5 0 7 -9 4 -20 -3 -11 0
-23 5 -27 7 -4 8 -1 3 7 -5 9 -4 11 4 6 7 -4 10 -13 8 -19 -2 -7 3 -18 12 -25
9 -8 10 -11 4 -7 -8 4 -13 0 -13 -10 0 -9 4 -14 9 -11 5 3 12 -1 15 -10 3 -8
2 -12 -4 -9 -6 3 -7 -1 -4 -9 3 -9 10 -16 15 -16 5 0 9 -9 9 -20 0 -11 5 -20
11 -20 5 0 7 -4 4 -10 -3 -5 0 -10 7 -10 9 0 9 -3 -2 -10 -11 -7 -12 -10 -2
-10 8 0 12 -6 9 -12 -2 -7 3 -19 12 -26 9 -8 10 -11 4 -7 -9 4 -11 1 -7 -9 3
-9 10 -16 15 -16 5 0 9 -5 9 -11 0 -5 -6 -7 -12 -4 -7 4 -5 0 6 -9 10 -8 15
-19 12 -24 -3 -6 0 -12 8 -15 9 -4 12 -17 10 -36 -2 -17 1 -31 7 -31 6 0 7 5
4 10 -3 6 -1 10 5 10 7 0 9 -8 5 -20 -4 -13 -2 -20 6 -20 7 0 9 -3 6 -7 -4 -3
0 -17 9 -31 9 -13 12 -22 6 -18 -6 3 -5 -4 1 -18 7 -13 14 -23 18 -20 3 2 5
-8 3 -21 -1 -14 2 -25 7 -25 6 0 7 -4 4 -10 -3 -5 -1 -10 4 -10 6 0 10 -3 10
-7 -1 -5 -1 -19 0 -33 1 -21 3 -22 12 -10 9 12 10 11 6 -7 -3 -13 -1 -23 5
-23 5 0 6 -4 3 -10 -3 -5 -1 -10 5 -10 6 0 8 -4 5 -10 -3 -5 -2 -10 4 -10 6 0
8 -7 5 -15 -4 -8 -1 -15 5 -15 6 0 8 -6 5 -13 -2 -7 4 -21 15 -31 11 -10 18
-22 15 -27 -3 -5 0 -18 7 -30 8 -15 8 -19 0 -15 -6 4 -11 2 -11 -3 0 -6 5 -11
11 -11 8 0 9 -4 0 -13 -6 -8 -8 -17 -4 -20 3 -4 1 -7 -6 -7 -8 0 -11 -6 -7
-16 3 -8 2 -13 -2 -10 -4 2 -12 -7 -19 -20 -6 -13 -7 -22 -3 -19 4 3 3 -6 -3
-20 -7 -14 -16 -25 -22 -25 -5 0 -3 -5 5 -10 13 -8 13 -10 -1 -10 -11 0 -15
-8 -14 -25 2 -14 -1 -23 -6 -19 -5 3 -9 -1 -9 -9 0 -8 -7 -20 -15 -27 -9 -7
-14 -19 -11 -27 7 -17 -4 -44 -15 -37 -5 3 -6 -3 -2 -12 5 -12 3 -15 -6 -9
-10 6 -11 3 -1 -15 8 -15 8 -20 1 -16 -7 5 -11 -1 -11 -14 0 -12 -4 -18 -10
-15 -6 3 -7 -1 -4 -10 4 -9 -1 -24 -10 -34 -9 -10 -13 -21 -9 -24 3 -4 2 -7
-4 -7 -6 0 -10 -8 -9 -17 0 -11 -5 -17 -13 -15 -12 3 -12 0 -2 -12 9 -11 9
-16 0 -22 -8 -5 -9 -3 -4 6 5 9 4 11 -4 6 -9 -6 -9 -11 -1 -21 8 -10 8 -15 -1
-21 -8 -5 -9 -3 -4 6 5 8 4 11 -3 7 -5 -4 -8 -16 -5 -27 3 -11 0 -20 -6 -20
-6 0 -11 -9 -11 -20 0 -11 -4 -20 -9 -20 -16 0 -18 -35 -3 -50 14 -13 15 -12
9 5 -7 19 -6 19 7 2 10 -14 15 -15 19 -5 4 10 8 10 16 -2 9 -12 13 -12 19 -2
10 16 33 12 48 -7 8 -10 13 -11 18 -2 4 6 12 8 18 5 7 -4 8 -2 4 4 -4 7 1 10
14 9 11 -1 20 -8 20 -17 0 -13 2 -13 9 -1 5 8 17 16 25 17 9 1 14 -1 12 -5 -3
-4 14 -6 37 -5 23 1 42 2 42 3 0 1 12 4 27 6 19 2 28 -2 31 -13 4 -14 5 -13 6
2 1 20 1 20 16 0 9 -10 14 -13 13 -5 -2 7 3 16 11 19 9 3 11 0 6 -8 -5 -9 -3
-10 11 -2 11 5 29 8 42 7 12 -1 22 2 22 7 0 5 4 6 10 3 6 -3 7 1 4 9 -3 9 -1
16 5 16 6 0 8 7 5 15 -4 8 -1 15 7 15 7 0 9 3 6 7 -4 3 -1 13 6 21 10 13 9 14
-3 7 -12 -7 -13 -6 -3 7 7 8 9 19 5 23 -4 5 -2 5 5 1 6 -3 14 -2 18 4 3 5 0
10 -7 10 -8 1 -6 6 6 15 14 11 16 15 5 15 -9 0 -10 3 -3 8 12 8 29 50 33 83 0
5 6 7 11 4 6 -3 10 -1 10 4 0 6 -6 11 -12 11 -10 0 -9 3 1 9 7 5 11 13 7 19
-3 5 1 13 10 16 8 3 12 10 9 16 -3 5 0 10 7 10 9 0 9 3 -2 10 -12 8 -12 10 5
10 17 0 17 2 5 10 -12 8 -12 10 5 10 15 0 17 2 6 9 -9 6 -10 11 -2 15 6 4 9
12 6 17 -4 5 2 9 12 9 10 0 14 4 8 8 -14 10 -12 41 4 51 8 5 10 14 6 21 -5 8
-4 11 2 7 6 -4 14 0 17 9 4 10 2 13 -7 8 -6 -4 -3 3 8 16 11 13 14 20 6 15 -9
-5 -7 1 4 19 10 14 14 26 9 26 -4 0 -3 5 4 12 7 7 12 20 12 30 0 10 5 18 11
18 7 0 9 10 7 24 -3 17 -1 23 8 19 8 -3 11 4 10 21 -2 14 1 26 6 26 5 0 6 5 2
12 -5 8 -2 9 10 5 14 -6 15 -3 6 13 -7 13 -7 20 -1 20 6 0 13 16 17 35 3 19
10 33 14 30 4 -3 8 7 8 21 0 15 6 30 13 35 12 7 12 9 0 9 -11 0 -9 4 5 15 10
8 15 15 9 15 -5 0 -3 5 5 10 11 7 11 10 2 10 -8 0 -5 8 8 22 13 15 17 25 10
32 -13 13 -13 26 1 26 5 0 7 -5 3 -12 -4 -7 -3 -8 5 -4 6 4 9 11 6 16 -3 5 -1
11 4 15 5 3 8 15 6 26 -3 14 0 19 8 16 9 -3 12 6 12 30 -1 22 2 32 10 29 7 -2
11 5 10 17 -1 12 5 28 14 35 14 12 14 13 -4 8 -19 -6 -19 -6 -1 8 10 8 16 22
13 30 -3 8 1 17 10 20 8 4 13 13 9 21 -3 8 0 15 6 15 7 0 6 6 -2 16 -8 8 -9
14 -4 13 5 -1 15 -1 23 0 11 1 11 4 0 18 -12 15 -12 16 5 10 16 -6 17 -5 6 8
-8 10 -9 15 -1 15 6 0 11 12 11 26 0 14 4 22 10 19 6 -4 7 1 3 11 -5 13 -3 15
7 9 9 -5 11 -4 6 4 -4 6 -2 19 6 28 11 14 11 16 -2 9 -13 -7 -13 -6 0 6 8 7
15 19 16 26 2 29 5 33 15 26 8 -5 8 -1 0 14 -8 15 -8 23 1 28 7 5 8 3 3 -6 -5
-8 -4 -11 2 -7 6 4 8 19 5 33 -3 17 -1 25 6 21 5 -4 13 0 16 9 3 8 2 13 -3 10
-5 -4 -4 5 2 18 7 13 15 22 19 20 4 -3 5 5 3 16 -2 11 0 20 4 20 5 0 11 9 14
20 3 13 1 18 -6 13 -7 -4 -6 0 1 10 8 9 10 22 6 29 -5 9 -2 8 12 -2 10 -8 16
-11 12 -6 -4 5 -3 18 3 29 8 14 8 18 0 13 -6 -4 -11 -2 -11 4 0 6 6 13 14 16
9 3 12 12 9 21 -5 12 -3 14 7 8 9 -6 11 -4 6 4 -5 7 0 22 11 34 18 21 18 21
-1 7 -18 -14 -19 -14 -8 6 6 12 8 25 4 29 -4 5 -1 5 6 1 6 -4 12 -2 12 4 0 6
5 8 13 4 8 -5 8 -2 -2 9 -8 10 -9 17 -3 17 6 0 9 9 7 20 -2 11 1 23 7 26 7 5
8 2 3 -6 -5 -9 -4 -11 4 -6 9 6 9 11 -1 24 -7 9 -8 13 -3 10 6 -4 17 2 24 14
7 11 8 17 2 13 -17 -10 -13 6 7 28 12 15 13 19 2 13 -13 -7 -13 -6 0 6 13 12
19 27 22 66 1 6 7 12 15 12 7 0 13 5 13 10 0 6 -6 10 -12 10 -9 0 -10 3 -2 8
6 4 10 15 9 24 -2 10 2 15 10 12 9 -4 12 1 10 13 -1 10 5 27 14 37 13 16 13
18 1 11 -12 -6 -13 -5 -2 6 6 7 12 21 12 32 0 10 4 16 8 13 5 -3 9 1 9 9 0 8
-7 15 -14 15 -8 0 -11 5 -7 13 6 10 4 10 -7 0 -7 -7 -17 -13 -22 -13 -4 0 -5
6 -1 13 6 10 4 10 -7 0 -7 -7 -17 -13 -22 -13 -4 0 -5 6 -1 13 5 8 2 8 -9 -2
-14 -11 -20 -11 -34 0 -11 10 -14 10 -9 2 4 -7 3 -13 -1 -13 -5 0 -15 6 -22
13 -11 10 -13 10 -7 0 4 -7 3 -13 -1 -13 -5 0 -15 6 -22 13 -11 10 -13 10 -7
0 4 -7 3 -13 -1 -13 -5 0 -15 6 -22 13 -11 10 -13 10 -7 0 4 -7 3 -13 -1 -13
-5 0 -15 6 -22 13 -11 10 -13 10 -7 0 4 -7 3 -13 -1 -13 -5 0 -15 6 -22 13
-11 10 -13 10 -7 0 4 -7 3 -13 -1 -13 -5 0 -15 6 -22 13 -11 10 -13 10 -7 0 4
-7 3 -13 -1 -13 -5 0 -15 6 -22 13 -11 10 -13 10 -7 0 4 -7 3 -13 -1 -13 -5 0
-15 6 -22 13 -11 10 -13 10 -7 0 4 -7 3 -13 -1 -13 -5 0 -15 6 -22 13 -11 10
-13 10 -7 0 4 -7 3 -13 -1 -13 -5 0 -15 6 -22 13 -11 10 -13 10 -7 0 9 -16 -6
-17 -21 -2 -8 8 -13 8 -17 0 -10 -15 -29 -14 -21 2 4 6 0 4 -8 -5 -9 -12 -17
-14 -24 -7 -7 7 -9 0 -8 -21 1 -16 -1 -30 -5 -30 -12 0 -19 -39 -9 -46 12 -7
2 -24 -14 -24 -7 0 -6 4 3 10 9 6 10 10 3 10 -17 0 -25 -17 -12 -26 8 -4 8 -9
1 -13 -6 -3 -12 -18 -14 -31 -2 -14 -10 -36 -18 -50 -7 -14 -13 -27 -13 -30 1
-9 -8 -34 -18 -54 -8 -14 -8 -16 3 -10 10 6 11 5 1 -8 -7 -8 -10 -18 -6 -21 3
-4 1 -7 -5 -7 -6 0 -9 -11 -6 -27 4 -23 3 -25 -11 -13 -14 12 -15 10 -5 -14 5
-15 6 -25 1 -21 -5 3 -12 1 -16 -5 -3 -5 -1 -10 6 -10 7 0 5 -6 -6 -14 -11 -8
-16 -20 -12 -29 3 -9 2 -19 -4 -23 -6 -3 -8 -12 -5 -20 3 -8 1 -14 -5 -14 -6
0 -8 -4 -4 -9 3 -5 1 -12 -5 -16 -6 -4 -7 -11 -4 -17 5 -7 1 -9 -9 -5 -11 4
-14 2 -10 -8 3 -8 10 -12 17 -8 6 3 4 -2 -5 -13 -24 -29 -34 -48 -21 -40 7 4
12 2 12 -3 0 -6 -8 -11 -17 -11 -15 0 -16 -2 -3 -10 8 -5 10 -10 4 -10 -7 0
-15 -7 -18 -16 -4 -10 -2 -13 7 -8 6 4 3 -3 -8 -16 -12 -14 -14 -20 -5 -15 12
7 13 6 3 -7 -7 -8 -10 -18 -6 -21 3 -4 2 -7 -4 -7 -6 0 -14 -7 -17 -16 -4 -10
-2 -13 7 -8 9 6 9 5 0 -8 -7 -8 -10 -18 -6 -21 3 -4 1 -7 -7 -7 -10 0 -10 -3
0 -15 11 -13 10 -14 -4 -9 -9 3 -16 2 -16 -4 0 -6 6 -13 13 -15 7 -3 5 -6 -5
-6 -11 -1 -15 -6 -12 -16 4 -8 1 -15 -6 -15 -10 0 -9 -4 0 -16 11 -12 11 -15
0 -12 -10 2 -14 -6 -14 -25 1 -21 -2 -27 -14 -22 -12 4 -13 3 -2 -10 10 -12
10 -15 0 -15 -8 0 -10 -3 -7 -7 4 -3 1 -13 -6 -21 -10 -13 -9 -15 3 -8 13 7
13 6 0 -6 -8 -7 -15 -20 -15 -28 0 -10 -9 -15 -27 -14 -51 3 -54 4 -38 14 12
8 10 10 -10 10 -20 0 -22 2 -10 11 12 8 12 12 2 16 -10 4 -10 8 0 21 10 12 10
14 1 8 -8 -4 -13 -1 -13 9 0 9 -4 14 -8 11 -5 -3 -8 10 -7 29 0 19 -3 31 -9
28 -5 -4 -7 1 -3 11 6 14 3 17 -9 12 -14 -5 -15 -4 -5 8 9 11 8 17 -4 30 -11
11 -13 16 -4 16 7 0 5 6 -6 13 -10 8 -15 19 -11 25 3 5 0 13 -6 15 -10 4 -10
6 0 6 11 1 11 4 -1 15 -8 8 -13 28 -12 45 1 25 -1 29 -12 20 -10 -9 -12 -5 -9
20 2 17 -1 31 -5 31 -5 0 -9 7 -9 15 0 8 -5 15 -11 15 -8 0 -8 5 1 15 10 12 9
15 -6 15 -16 0 -17 2 -4 10 11 7 11 10 2 10 -7 0 -10 5 -7 10 3 6 1 10 -5 10
-7 0 -9 8 -5 21 5 13 3 19 -3 15 -15 -9 -22 20 -9 34 9 10 9 11 0 6 -8 -4 -13
-1 -13 8 0 9 -5 16 -11 16 -8 0 -8 5 1 15 10 12 9 16 -4 21 -12 5 -13 10 -6
25 8 14 7 17 -3 14 -8 -4 -13 3 -14 16 -1 12 -8 26 -15 30 -10 7 -10 9 2 9 11
0 12 2 3 8 -7 5 -14 20 -15 35 -1 17 -8 27 -18 27 -13 0 -13 1 0 10 8 5 10 10
3 10 -6 0 -10 11 -9 25 2 13 -1 22 -5 19 -8 -5 -13 10 -10 30 1 4 -3 14 -9 20
-5 7 -7 16 -3 19 3 4 1 7 -6 7 -7 0 -9 5 -6 10 3 6 2 10 -3 10 -5 0 -12 9 -15
20 -3 11 -1 18 4 14 5 -3 6 2 3 10 -3 9 -10 16 -14 16 -4 0 -10 9 -13 20 -3
12 -1 18 5 14 6 -4 6 1 -1 13 -6 11 -7 24 -3 28 4 5 1 5 -6 1 -7 -4 -10 -11
-7 -16 3 -4 -4 -6 -15 -3 -11 3 -17 10 -13 17 3 6 0 6 -8 -1 -7 -7 -19 -13
-27 -13 -8 0 -10 5 -6 13 6 10 4 10 -7 0 -7 -7 -17 -13 -22 -13 -4 0 -5 6 -1
13 6 10 4 10 -7 0 -7 -7 -17 -13 -22 -13 -4 0 -5 6 -1 13 6 10 4 10 -7 0 -7
-7 -17 -13 -22 -13 -4 0 -5 6 -1 13 6 10 4 10 -7 0 -7 -7 -17 -13 -22 -13 -4
0 -5 6 -1 13 6 10 4 10 -7 0 -7 -7 -17 -13 -22 -13 -4 0 -5 6 -1 13 6 10 4 10
-7 0 -7 -7 -17 -13 -22 -13 -4 0 -5 6 -1 13 6 10 4 10 -7 0 -7 -7 -17 -13 -22
-13 -4 0 -5 6 -1 13 6 10 4 10 -7 0 -7 -7 -17 -13 -22 -13 -4 0 -5 6 -1 13 6
10 4 10 -7 0 -7 -7 -17 -13 -22 -13 -4 0 -5 6 -1 13 6 10 4 10 -7 0 -7 -7 -17
-13 -22 -13 -4 0 -5 6 -1 13 6 10 4 10 -7 0 -7 -7 -17 -13 -22 -13 -4 0 -5 6
-1 13 6 10 4 10 -7 0 -7 -7 -17 -13 -22 -13 -4 0 -5 6 -1 13 5 8 2 8 -9 -2
-14 -11 -17 -11 -17 0 0 11 -2 11 -10 -1 -9 -13 -11 -13 -20 0 -8 13 -10 12
-10 -3z m570 -2051 c0 -3 -4 -8 -10 -11 -5 -3 -10 -1 -10 4 0 6 5 11 10 11 6
0 10 -2 10 -4z"/>
<path d="M6960 7597 c0 -10 -4 -16 -9 -13 -5 3 -12 -1 -15 -10 -3 -8 -2 -12 4
-9 6 3 10 2 10 -3 0 -6 -7 -13 -16 -16 -10 -4 -14 -14 -11 -26 3 -12 1 -17 -5
-14 -5 3 -8 -2 -6 -12 2 -11 -2 -18 -10 -16 -10 2 -10 -2 -2 -19 10 -17 8 -24
-8 -39 -11 -10 -22 -18 -24 -17 -2 1 0 -2 4 -7 4 -5 3 -17 -3 -28 -5 -10 -7
-24 -3 -30 4 -7 3 -8 -4 -4 -10 6 -17 -7 -9 -17 1 -2 -4 -11 -11 -20 -8 -9
-11 -21 -7 -27 3 -5 -2 -10 -12 -10 -14 0 -15 -2 -4 -9 9 -6 10 -11 2 -15 -6
-4 -9 -12 -6 -17 4 -5 1 -9 -5 -9 -6 0 -8 -4 -5 -10 3 -5 1 -10 -5 -10 -7 0
-10 -6 -7 -14 3 -8 -1 -17 -10 -20 -13 -5 -13 -9 -2 -23 12 -14 12 -16 0 -8
-11 6 -13 3 -8 -14 3 -14 0 -24 -9 -28 -8 -3 -11 -9 -8 -14 3 -5 0 -9 -6 -9
-6 0 -9 -4 -5 -9 3 -6 -4 -26 -15 -46 -12 -21 -15 -34 -8 -30 7 4 6 0 -4 -7
-12 -10 -14 -18 -6 -31 7 -13 6 -17 -4 -15 -7 2 -13 -4 -13 -12 0 -8 -7 -21
-15 -28 -13 -12 -13 -13 0 -6 12 7 13 5 3 -8 -7 -8 -10 -18 -6 -21 3 -4 1 -7
-5 -7 -6 0 -9 -9 -7 -20 2 -11 0 -18 -6 -15 -8 5 -14 -25 -10 -49 1 -5 -5 -6
-13 -3 -10 4 -13 1 -9 -9 3 -8 0 -21 -7 -29 -9 -11 -9 -15 -1 -15 7 0 10 -4 6
-10 -3 -5 -13 -6 -23 -3 -14 6 -15 4 -4 -9 9 -12 10 -18 2 -23 -6 -4 -9 -13
-6 -21 3 -9 -1 -14 -12 -15 -11 0 -12 -2 -4 -6 10 -4 10 -8 1 -19 -6 -8 -8
-14 -3 -14 4 0 -1 -7 -12 -16 -10 -8 -12 -12 -4 -8 10 5 8 -1 -5 -16 -11 -13
-15 -20 -8 -17 7 5 9 0 6 -14 -3 -11 -12 -23 -20 -26 -10 -4 -11 -9 -3 -18 8
-9 6 -14 -5 -19 -9 -3 -13 -10 -10 -16 3 -5 0 -10 -7 -10 -10 0 -10 -2 1 -9
11 -7 10 -12 -6 -28 -11 -11 -17 -25 -15 -33 3 -7 0 -10 -5 -7 -5 3 -9 -2 -9
-11 -1 -29 -8 -46 -24 -59 -13 -11 -12 -12 5 -7 17 5 17 3 -4 -14 -18 -15 -21
-21 -10 -25 10 -4 10 -6 2 -6 -7 -1 -13 -10 -13 -20 0 -11 -5 -23 -11 -26 -6
-4 -8 -13 -5 -21 3 -8 0 -14 -6 -14 -6 0 -8 -3 -5 -7 4 -3 -1 -12 -11 -20 -9
-8 -11 -12 -4 -8 6 3 12 1 12 -4 0 -6 -5 -11 -11 -11 -5 0 -7 -4 -4 -10 3 -5
2 -10 -4 -10 -5 0 -8 -9 -6 -20 2 -12 -2 -20 -9 -20 -7 0 -12 -10 -11 -22 1
-13 -3 -32 -8 -43 -6 -11 -10 -23 -9 -27 1 -5 -3 -8 -9 -8 -5 0 -8 -4 -5 -9 3
-5 -1 -12 -10 -15 -13 -5 -14 -9 -5 -20 9 -11 8 -15 -6 -20 -15 -6 -15 -8 -3
-16 12 -8 12 -10 -2 -15 -10 -4 -14 -13 -11 -22 4 -11 2 -14 -5 -9 -6 4 -11
-1 -11 -11 -1 -45 -5 -54 -19 -48 -12 4 -13 3 -2 -10 10 -12 10 -15 0 -15 -8
0 -10 -3 -7 -7 4 -3 -1 -16 -10 -27 -17 -20 -17 -20 0 -7 15 12 17 12 11 -2
-3 -8 -12 -18 -21 -21 -8 -4 -13 -12 -10 -20 3 -8 -1 -23 -9 -35 -9 -12 -11
-21 -5 -21 6 0 1 -10 -10 -21 -17 -17 -19 -23 -8 -30 10 -6 10 -9 2 -9 -8 0
-10 -7 -6 -17 6 -15 4 -16 -9 -5 -13 10 -15 9 -13 -13 2 -14 -1 -25 -6 -25 -4
0 -6 -6 -3 -14 3 -8 1 -17 -5 -21 -6 -3 -11 -17 -11 -31 0 -16 -4 -23 -11 -18
-8 5 -10 -1 -7 -19 3 -16 0 -31 -8 -38 -8 -6 -14 -22 -14 -36 0 -14 -4 -21
-10 -18 -5 3 -10 0 -11 -7 -3 -45 -7 -61 -20 -69 -8 -5 -9 -9 -4 -9 6 0 3 -5
-5 -10 -11 -7 -11 -10 -2 -10 7 0 10 -5 7 -10 -4 -6 -10 -8 -15 -5 -4 3 -6 -5
-2 -17 3 -12 7 -17 10 -10 2 6 8 12 13 12 6 0 8 -4 4 -9 -3 -5 -1 -13 5 -16 6
-4 9 -1 8 6 -2 7 7 14 19 15 12 1 20 -3 17 -7 -3 -5 -1 -9 5 -9 5 0 13 5 16
10 10 16 25 12 25 -7 0 -15 2 -15 9 -4 5 8 17 16 25 17 9 1 14 -1 12 -5 -3 -4
6 -7 19 -7 13 0 21 4 19 8 -3 4 -1 8 5 8 5 0 12 -6 14 -12 4 -9 8 -10 14 -2 9
13 43 15 43 2 0 -4 5 -8 11 -8 5 0 8 4 5 8 -6 10 30 9 40 -1 11 -11 26 -8 19
3 -8 13 17 8 28 -5 4 -7 10 -6 15 1 8 13 42 15 42 2 0 -4 5 -8 11 -8 5 0 8 4
5 8 -2 4 4 8 14 8 10 0 17 -3 14 -7 -2 -4 4 -6 13 -4 10 2 21 4 25 4 4 1 5 8
2 16 -4 8 1 17 10 21 12 5 14 10 6 19 -8 10 -8 15 0 20 6 4 9 14 5 22 -4 13
-3 14 9 4 12 -10 13 -8 9 10 -4 15 -3 20 5 15 8 -5 10 -1 5 10 -4 11 -2 15 4
11 6 -4 8 3 5 20 -3 18 -1 24 6 19 8 -5 10 -1 5 10 -4 10 -2 15 3 11 5 -3 11
3 12 14 4 43 6 48 18 53 7 3 11 16 10 30 -2 14 3 27 11 30 8 3 12 10 9 14 -3
5 1 20 9 35 10 19 10 27 2 31 -7 2 -4 5 5 5 11 1 15 6 12 15 -3 8 -1 17 5 21
6 3 11 11 11 16 0 6 -5 7 -12 3 -7 -5 -8 -3 -4 5 5 7 15 10 23 6 13 -4 14 -3
4 9 -10 11 -8 17 6 25 10 6 12 11 6 11 -7 0 -13 5 -13 11 0 5 4 8 9 5 5 -3 11
1 15 9 3 8 0 15 -7 15 -7 0 -8 3 -2 8 16 12 41 47 28 38 -9 -5 -11 -2 -7 8 3
9 11 13 17 9 6 -3 7 -1 3 6 -4 6 -2 18 4 26 7 8 10 22 6 30 -4 11 -2 14 6 9 8
-5 9 -2 5 9 -3 10 -2 17 4 17 6 0 7 5 3 12 -5 8 -1 9 12 4 14 -5 16 -4 8 4
-14 14 -6 60 10 60 8 0 12 15 12 39 -1 33 1 37 13 28 12 -10 14 -9 8 6 -4 9
-2 17 5 17 7 0 6 5 -2 15 -13 15 -3 21 25 15 6 -1 5 4 -1 10 -13 13 -7 53 7
44 5 -3 6 3 2 12 -4 11 1 22 12 30 11 8 13 14 6 14 -7 0 -9 5 -6 10 4 6 11 8
16 5 5 -3 6 2 2 11 -5 13 -3 15 8 9 11 -6 11 -5 2 5 -14 15 -6 43 10 33 6 -4
8 0 4 10 -8 21 2 49 14 41 5 -3 6 2 3 11 -4 9 1 21 11 29 14 10 15 15 5 21 -9
6 -9 9 0 15 11 7 17 27 19 58 1 7 5 10 11 7 6 -4 7 1 3 11 -5 13 -3 15 8 9 11
-7 11 -5 -1 10 -9 11 -10 16 -2 11 12 -7 15 3 15 46 0 10 3 15 7 13 10 -6 18
14 15 42 -1 12 3 21 9 20 6 -1 10 6 10 16 -1 9 2 17 7 17 4 0 6 9 4 19 -3 15
0 18 13 14 15 -6 15 -5 3 10 -9 11 -10 17 -2 17 6 0 10 6 8 13 -1 6 4 11 11 9
10 -2 10 2 2 17 -8 16 -5 24 18 42 15 12 19 19 10 16 -12 -4 -15 -2 -11 9 3 7
13 14 22 15 12 0 12 2 -4 8 -19 8 -19 8 0 19 11 6 16 12 10 12 -5 0 -3 5 5 11
11 8 12 12 3 15 -9 4 -7 12 7 26 11 12 17 25 14 30 -3 5 0 15 6 23 7 8 9 15 4
15 -5 0 -4 4 1 8 6 4 16 18 23 31 11 19 11 22 0 15 -10 -6 -11 -5 -1 8 7 8 9
19 5 23 -4 5 1 5 11 2 14 -5 16 -3 9 9 -9 17 6 64 21 64 4 0 7 11 7 25 0 14 5
25 11 25 8 0 8 5 -1 15 -10 12 -8 16 11 24 13 5 19 10 12 10 -13 1 -5 41 9 41
5 0 7 4 3 9 -3 5 -1 12 5 16 6 4 8 11 5 16 -4 5 -2 9 3 9 6 0 13 7 16 16 4 10
2 13 -7 8 -8 -6 -8 -3 1 9 8 9 11 20 8 26 -4 5 6 19 21 32 16 12 20 19 10 16
-15 -6 -16 -4 -7 13 6 11 8 26 4 32 -4 6 -3 8 2 5 6 -3 16 3 23 15 10 16 10
19 -1 12 -10 -6 -11 -5 -1 8 7 8 10 18 6 21 -3 4 2 7 13 8 10 0 14 3 7 5 -7 3
-9 12 -6 20 3 7 8 12 12 10 4 -3 7 3 7 13 0 12 -6 17 -18 13 -10 -2 -26 2 -35
9 -12 10 -14 10 -9 2 4 -8 2 -13 -8 -13 -8 0 -17 6 -19 13 -4 10 -6 10 -6 0
-1 -7 -7 -13 -15 -13 -8 0 -17 6 -19 13 -4 10 -6 10 -6 0 -1 -7 -8 -13 -17
-13 -8 0 -12 5 -9 11 4 6 -2 5 -13 -2 -17 -11 -24 -10 -38 2 -11 9 -15 9 -10
2 4 -8 2 -13 -8 -13 -8 0 -17 6 -19 13 -4 10 -6 10 -6 0 -1 -7 -7 -13 -15 -13
-8 0 -17 6 -19 13 -4 10 -6 10 -6 0 -1 -7 -8 -13 -17 -13 -8 0 -12 5 -9 11 4
6 -2 5 -13 -2 -17 -11 -24 -10 -38 2 -11 9 -15 9 -10 2 4 -8 2 -13 -8 -13 -8
0 -17 6 -19 13 -4 10 -6 10 -6 0 -1 -7 -10 -13 -22 -13 -13 0 -18 4 -13 13 5
8 2 8 -9 -2 -14 -11 -17 -11 -17 0 0 11 -2 11 -10 -1 -9 -13 -11 -13 -20 0 -8
13 -10 12 -10 -3z"/>
<path d="M6885 7440 c-3 -5 -1 -10 4 -10 6 0 11 5 11 10 0 6 -2 10 -4 10 -3 0
-8 -4 -11 -10z"/>
<path d="M10667 7123 c3 -7 6 -13 8 -13 2 0 5 6 8 13 3 8 -1 14 -8 14 -7 0
-11 -6 -8 -14z"/>
<path d="M11594 6247 c-3 -10 -12 -16 -19 -13 -8 3 -16 -2 -19 -10 -3 -8 -11
-14 -18 -13 -25 3 -39 -1 -34 -10 3 -5 -4 -11 -15 -14 -12 -3 -18 -10 -14 -16
6 -10 -8 -16 -28 -12 -5 1 -6 -3 -2 -9 3 -6 -1 -17 -9 -26 -9 -9 -13 -20 -10
-26 4 -7 2 -8 -4 -4 -11 6 -16 -6 -13 -26 0 -5 -3 -8 -8 -8 -4 0 -8 -10 -7
-22 1 -13 -3 -26 -9 -30 -6 -5 -5 -11 4 -17 11 -7 10 -11 -5 -20 -12 -6 -14
-11 -5 -11 9 0 12 -8 9 -25 -3 -14 -2 -25 2 -25 5 0 6 -10 2 -22 -5 -20 -3
-21 10 -10 13 10 15 9 10 -13 -2 -15 0 -25 7 -25 7 0 9 -5 6 -10 -3 -6 1 -13
9 -16 9 -3 16 -11 16 -18 0 -14 36 -46 51 -46 5 0 7 -4 4 -10 -4 -6 5 -10 20
-10 15 0 24 -4 20 -10 -7 -11 1 -13 50 -14 17 -1 29 -7 28 -14 -2 -8 4 -9 21
-2 13 5 27 6 30 2 12 -11 46 -9 37 2 -6 7 -1 11 15 12 13 1 21 -2 18 -8 -3 -5
3 -4 14 3 12 7 19 17 16 21 -3 4 1 5 9 2 8 -3 18 0 22 5 3 6 12 8 18 5 7 -4 9
-4 5 1 -8 8 31 42 44 38 4 -2 4 5 1 14 -5 12 -3 14 7 8 10 -6 12 -3 8 12 -4
14 -1 20 10 19 8 0 17 6 19 14 4 13 3 13 -6 0 -8 -11 -11 -11 -11 -2 0 7 6 15
14 18 7 3 13 15 12 27 -1 12 5 28 12 36 10 10 10 16 2 21 -7 5 -6 11 5 20 16
13 15 15 -1 27 -10 8 -13 13 -5 13 7 0 9 5 6 10 -4 6 -9 8 -13 6 -4 -2 -7 12
-6 32 1 34 -14 64 -27 56 -3 -2 -6 3 -7 11 -1 8 -3 22 -4 30 -1 8 -5 12 -10 9
-4 -3 -8 0 -8 5 0 6 -6 11 -14 11 -8 0 -24 12 -36 28 -12 15 -19 20 -15 12 4
-8 -2 -4 -13 9 -14 18 -21 20 -27 11 -6 -10 -10 -9 -17 4 -8 14 -12 15 -26 4
-13 -11 -14 -11 -7 1 6 11 4 13 -7 9 -8 -4 -21 -2 -29 3 -9 5 -22 3 -36 -6
-20 -13 -23 -13 -32 3 -9 16 -10 16 -17 -1z"/>
<path d="M11835 6190 c3 -5 8 -10 11 -10 2 0 4 5 4 10 0 6 -5 10 -11 10 -5 0
-7 -4 -4 -10z"/>
<path d="M5313 5875 c0 -8 4 -12 9 -9 5 3 6 10 3 15 -9 13 -12 11 -12 -6z"/>
</g>
</svg>
