<svg width="12" height="18" viewBox="0 0 12 18" fill="none" xmlns="http://www.w3.org/2000/svg">
<path d="M12 6C12 6.3 11.9 6.5 11.7 6.7C11.3 7.1 10.7 7.1 10.3 6.7L5.3 1.7C4.9 1.3 4.9 0.699999 5.3 0.299999C5.7 -0.100001 6.3 -0.100001 6.7 0.299999L11.7 5.3C11.9 5.5 12 5.7 12 6Z" fill="white"/>
<path d="M7 1C7 1.3 6.9 1.5 6.7 1.7L1.7 6.7C1.3 7.1 0.7 7.1 0.3 6.7C-0.1 6.3 -0.1 5.7 0.3 5.3L5.3 0.299999C5.7 -0.100001 6.3 -0.100001 6.7 0.299999C6.9 0.499999 7 0.7 7 1Z" fill="white"/>
<path d="M7 1L7 17C7 17.6 6.6 18 6 18C5.4 18 5 17.6 5 17L5 1C5 0.4 5.4 -1.74846e-08 6 -4.37114e-08C6.6 -6.99382e-08 7 0.4 7 1Z" fill="white"/>
</svg>
