<svg width="30" height="30" viewBox="0 0 30 30" fill="none" xmlns="http://www.w3.org/2000/svg">
<g clip-path="url(#clip0_36_195)">
<circle cx="15" cy="15" r="15" fill="#262626"/>
<path d="M15 0C12.0333 0 9.13319 0.879735 6.66645 2.52796C4.19972 4.17618 2.27713 6.51886 1.14181 9.25975C0.00649929 12.0006 -0.290551 15.0166 0.288228 17.9264C0.867006 20.8361 2.29562 23.5088 4.3934 25.6066C6.49119 27.7044 9.16394 29.133 12.0737 29.7118C14.9834 30.2906 17.9994 29.9935 20.7403 28.8582C23.4811 27.7229 25.8238 25.8003 27.4721 23.3336C29.1203 20.8668 30 17.9667 30 15C29.9957 11.0231 28.4139 7.2103 25.6018 4.3982C22.7897 1.58609 18.9769 0.00434263 15 0ZM15 28.5938C12.3114 28.5938 9.6832 27.7965 7.44772 26.3028C5.21224 24.8091 3.4699 22.686 2.44102 20.2021C1.41214 17.7182 1.14294 14.9849 1.66746 12.348C2.19197 9.71106 3.48665 7.28889 5.38777 5.38777C7.28889 3.48665 9.71107 2.19197 12.348 1.66745C14.9849 1.14293 17.7182 1.41213 20.2021 2.44101C22.686 3.46989 24.8091 5.21224 26.3028 7.44772C27.7965 9.6832 28.5938 12.3114 28.5938 15C28.5894 18.604 27.1558 22.0591 24.6074 24.6074C22.0591 27.1558 18.604 28.5894 15 28.5938Z" fill="#262626"/>
<path d="M13.6218 8.40941C13.4885 8.28521 13.3123 8.2176 13.1301 8.22081C12.9479 8.22403 12.7741 8.29782 12.6453 8.42664C12.5165 8.55547 12.4427 8.72927 12.4395 8.91143C12.4363 9.09358 12.5039 9.26988 12.6281 9.40316L18.225 15L12.6281 20.5969C12.559 20.6613 12.5036 20.7389 12.4652 20.8252C12.4267 20.9114 12.4061 21.0045 12.4044 21.0989C12.4027 21.1933 12.4201 21.2871 12.4555 21.3747C12.4908 21.4622 12.5435 21.5417 12.6102 21.6085C12.677 21.6753 12.7565 21.7279 12.8441 21.7633C12.9316 21.7986 13.0254 21.816 13.1198 21.8143C13.2142 21.8127 13.3073 21.792 13.3936 21.7536C13.4798 21.7152 13.5575 21.6597 13.6218 21.5907L19.7156 15.4969C19.8473 15.3651 19.9212 15.1864 19.9212 15C19.9212 14.8137 19.8473 14.635 19.7156 14.5032L13.6218 8.40941Z" fill="white"/>
</g>
<defs>
<clipPath id="clip0_36_195">
<rect width="30" height="30" fill="white"/>
</clipPath>
</defs>
</svg>
