<svg width="30" height="30" viewBox="0 0 30 30" fill="none" xmlns="http://www.w3.org/2000/svg">
<g clip-path="url(#clip0_36_205)">
<circle cx="15" cy="15" r="15" transform="rotate(-180 15 15)" fill="#262626"/>
<path d="M15 30C17.9667 30 20.8668 29.1203 23.3335 27.472C25.8003 25.8238 27.7229 23.4811 28.8582 20.7403C29.9935 17.9994 30.2906 14.9834 29.7118 12.0736C29.133 9.16393 27.7044 6.49118 25.6066 4.39339C23.5088 2.29561 20.8361 0.866995 17.9263 0.288217C15.0166 -0.290562 12.0006 0.00648794 9.25975 1.1418C6.51885 2.27712 4.17617 4.1997 2.52795 6.66644C0.879729 9.13318 -6.05869e-06 12.0333 -6.31805e-06 15C0.00433596 18.9769 1.58608 22.7897 4.39819 25.6018C7.21029 28.4139 11.0231 29.9957 15 30ZM15 1.40625C17.6886 1.40625 20.3168 2.20351 22.5523 3.69721C24.7878 5.19091 26.5301 7.31396 27.559 9.79789C28.5879 12.2818 28.8571 15.0151 28.3325 17.652C27.808 20.2889 26.5133 22.7111 24.6122 24.6122C22.7111 26.5134 20.2889 27.808 17.652 28.3325C15.0151 28.8571 12.2818 28.5879 9.79789 27.559C7.31396 26.5301 5.1909 24.7878 3.6972 22.5523C2.2035 20.3168 1.40624 17.6886 1.40624 15C1.41059 11.396 2.84418 7.94094 5.39256 5.39256C7.94094 2.84418 11.396 1.41059 15 1.40625Z" fill="#262626"/>
<path d="M16.3782 21.5906C16.5115 21.7148 16.6877 21.7824 16.8699 21.7792C17.0521 21.776 17.2259 21.7022 17.3547 21.5734C17.4835 21.4445 17.5573 21.2707 17.5605 21.0886C17.5637 20.9064 17.4961 20.7301 17.3719 20.5968L11.775 15L17.3719 9.40309C17.441 9.33871 17.4964 9.26109 17.5348 9.17484C17.5733 9.08859 17.5939 8.99548 17.5956 8.90107C17.5973 8.80667 17.5799 8.71289 17.5445 8.62534C17.5092 8.53779 17.4565 8.45825 17.3898 8.39149C17.323 8.32472 17.2435 8.27208 17.1559 8.23672C17.0684 8.20136 16.9746 8.18399 16.8802 8.18566C16.7858 8.18732 16.6927 8.20799 16.6064 8.24642C16.5202 8.28485 16.4425 8.34025 16.3782 8.40933L10.2844 14.5031C10.1527 14.6349 10.0788 14.8136 10.0788 15C10.0788 15.1863 10.1527 15.365 10.2844 15.4968L16.3782 21.5906Z" fill="white"/>
</g>
<defs>
<clipPath id="clip0_36_205">
<rect width="30" height="30" fill="white" transform="translate(30 30) rotate(-180)"/>
</clipPath>
</defs>
</svg>
