<svg width="44" height="44" viewBox="0 0 44 44" fill="none" xmlns="http://www.w3.org/2000/svg">
<path fill-rule="evenodd" clip-rule="evenodd" d="M21.9947 1.43945H22.0054C33.3112 1.43945 42.505 10.6634 42.505 21.9999C42.505 33.3364 33.3113 42.5605 22.0054 42.5605C17.835 42.5605 13.9673 41.3165 10.7253 39.1627L2.84342 41.6887L5.39851 34.0512C2.94044 30.6666 1.49506 26.4976 1.49506 22C1.49506 10.6606 10.6888 1.43945 21.9947 1.43945ZM29.9124 33.3753C31.4782 33.0355 33.4415 31.8742 33.9364 30.4731C34.431 29.0702 34.431 27.8748 34.2875 27.6208C34.1718 27.4191 33.8979 27.2869 33.4896 27.0897C33.3827 27.0381 33.2665 26.9821 33.1416 26.9191C32.5392 26.6185 29.6096 25.1663 29.0561 24.9734C28.5126 24.768 27.9949 24.8401 27.5849 25.421C27.5094 25.527 27.434 25.6333 27.359 25.739C26.8618 26.4402 26.3814 27.1175 25.9826 27.5487C25.6216 27.9342 25.0321 27.9834 24.5375 27.7776C24.4835 27.755 24.4217 27.73 24.3524 27.7019C23.5691 27.3846 21.8321 26.681 19.7287 24.8038C17.9552 23.2206 16.7508 21.2498 16.4023 20.6586C16.06 20.0656 16.3551 19.7178 16.6277 19.3965C16.6328 19.3905 16.6379 19.3845 16.643 19.3785C16.8182 19.1612 16.9884 18.98 17.1595 18.798C17.2835 18.666 17.408 18.5335 17.5351 18.3864C17.5534 18.3653 17.5712 18.3448 17.5886 18.3248C17.8581 18.0142 18.0181 17.8298 18.199 17.4432C18.4039 17.045 18.2582 16.6341 18.112 16.3308C18.0108 16.1174 17.3856 14.5961 16.8513 13.296C16.6255 12.7466 16.416 12.2368 16.2691 11.8817C15.8715 10.9282 15.5693 10.8925 14.967 10.8665C14.9532 10.8658 14.9392 10.8651 14.9251 10.8644C14.7307 10.8545 14.5165 10.8436 14.2798 10.8436C13.4955 10.8436 12.6777 11.0744 12.1834 11.5812C12.1666 11.5984 12.149 11.6163 12.1308 11.6349C11.4984 12.2791 10.0867 13.717 10.0867 16.5847C10.0867 19.4585 12.1212 22.2387 12.4954 22.7502C12.5054 22.7639 12.5143 22.776 12.5219 22.7864C12.5444 22.8161 12.5867 22.8776 12.6483 22.9671C13.4139 24.0792 17.1533 29.5112 22.7308 31.8279C27.4414 33.7865 28.8405 33.6036 29.9124 33.3753Z" fill="#FCFCFC"/>
</svg>
